<svg width="128" height="191" viewBox="0 0 128 191" fill="none" xmlns="http://www.w3.org/2000/svg">
<circle cx="63.5" cy="46" r="46" fill="#3369E7"/>
<path d="M51.3365 35.7011C51.3365 36.8326 51.4404 37.8716 51.6482 38.8183C51.856 39.7419 52.1562 40.5385 52.5487 41.2081C52.9413 41.8547 53.4031 42.3627 53.9342 42.7321C54.4883 43.0785 55.1002 43.2516 55.7698 43.2516C56.4394 43.2516 57.0398 43.0785 57.5709 42.7321C58.125 42.3627 58.5984 41.8547 58.9909 41.2081C59.3834 40.5385 59.6836 39.7419 59.8914 38.8183C60.0992 37.8716 60.2031 36.8326 60.2031 35.7011C60.2031 34.5697 60.0992 33.5422 59.8914 32.6186C59.6836 31.6719 59.3834 30.8753 58.9909 30.2288C58.5984 29.5591 58.125 29.0512 57.5709 28.7048C57.0398 28.3354 56.4394 28.1506 55.7698 28.1506C55.1002 28.1506 54.4883 28.3354 53.9342 28.7048C53.4031 29.0512 52.9413 29.5591 52.5487 30.2288C52.1562 30.8753 51.856 31.6719 51.6482 32.6186C51.4404 33.5422 51.3365 34.5697 51.3365 35.7011ZM45.691 35.7011C45.691 33.0688 46.1066 30.8176 46.9378 28.9472C47.7922 27.0769 48.9813 25.6454 50.5053 24.6525C52.0292 23.6365 53.7841 23.1285 55.7698 23.1285C57.8479 23.1285 59.6374 23.6365 61.1383 24.6525C62.6392 25.6454 63.7937 27.0769 64.6018 28.9472C65.4331 30.8176 65.8487 33.0688 65.8487 35.7011C65.8487 38.3334 65.4331 40.5847 64.6018 42.455C63.7937 44.3253 62.6392 45.7685 61.1383 46.7844C59.6374 47.7773 57.8479 48.2737 55.7698 48.2737C53.7841 48.2737 52.0292 47.7773 50.5053 46.7844C48.9813 45.7685 47.7922 44.3253 46.9378 42.455C46.1066 40.5847 45.691 38.3334 45.691 35.7011ZM69.5931 30.5751V25.4837L81.2306 23.1285V47.8235H75.585V29.0858L69.5931 30.5751Z" fill="white"/>
<circle cx="64" cy="127" r="64" fill="white"/>
<path d="M47.8753 133.761C44.377 133.761 40.8808 133.748 37.3825 133.772C36.6992 133.776 36.154 133.585 35.6466 133.136C32.3352 130.22 29.0037 127.325 25.6967 124.405C24.5595 123.402 24.5707 122.667 25.7257 121.65C29.0148 118.75 32.3241 115.875 35.6132 112.975C36.1451 112.508 36.7104 112.31 37.4225 112.31C44.446 112.328 51.4672 112.308 58.4906 112.339C59.3407 112.343 59.5766 112.103 59.5633 111.262C59.5277 109.059 58.7087 107.036 58.2213 104.937C58.1702 104.715 57.9498 104.525 57.7985 104.33C56.1851 102.267 56.6903 99.496 58.9624 98.1741C59.4186 97.9092 59.5922 97.6044 59.5477 97.1081C59.5232 96.8321 59.5165 96.5495 59.5477 96.2758C59.679 95.143 59.4142 94.2862 58.4461 93.4762C56.7659 92.0675 56.6903 90.0268 56.9484 88.0217C57.0508 87.2227 57.754 86.9935 58.5329 86.9957C61.92 87.0091 65.3049 87.0002 68.692 87.0002C69.6089 87.0002 70.5235 86.9891 71.4404 87.0046C72.4819 87.0224 72.9181 87.5054 72.9915 88.5424C73.154 90.8168 72.6087 92.7841 70.6704 94.1839C70.4211 94.3641 70.3143 94.5934 70.321 94.8938C70.3299 95.2276 70.3455 95.5614 70.3165 95.893C70.2142 97.0369 70.3766 97.887 71.5272 98.6459C73.3275 99.832 73.4811 102.523 72.088 104.285C71.7497 104.715 71.565 105.173 71.407 105.683C70.5257 108.518 70.1808 111.404 70.301 114.377C70.4033 116.899 70.3499 119.429 70.3054 121.955C70.2921 122.743 70.5057 123.001 71.3247 122.996C78.2925 122.965 85.2581 122.99 92.2259 122.965C93.0871 122.963 93.7636 123.186 94.409 123.758C97.5669 126.555 100.749 129.321 103.925 132.101C104.072 132.228 104.214 132.361 104.352 132.497C105.209 133.334 105.231 134.112 104.328 134.918C101.84 137.132 99.325 139.316 96.8214 141.51C95.9868 142.242 95.139 142.959 94.3244 143.713C93.7614 144.236 93.1405 144.436 92.3661 144.434C85.3716 144.412 78.377 144.434 71.3803 144.403C70.5391 144.398 70.2987 144.625 70.3032 145.473C70.3366 152.025 70.3232 158.574 70.321 165.126C70.321 166.704 69.9449 167.073 68.347 167.076C65.9881 167.076 63.6291 167.08 61.268 167.076C60.0039 167.071 59.5499 166.626 59.5455 165.38C59.5366 163.132 59.521 160.882 59.5566 158.634C59.5677 157.94 59.3385 157.731 58.6509 157.735C53.7927 157.76 48.9346 157.735 44.0788 157.76C43.3644 157.762 42.8014 157.557 42.2717 157.09C39.0026 154.21 35.7134 151.353 32.4442 148.471C31.2091 147.38 31.2047 146.679 32.4264 145.602C35.7156 142.703 39.027 139.827 42.3162 136.93C42.8258 136.48 43.3733 136.296 44.0543 136.3C48.8568 136.32 53.6592 136.293 58.4595 136.327C59.2651 136.333 59.6033 136.169 59.5611 135.281C59.4787 133.572 59.7191 133.768 58.0344 133.765C54.6473 133.759 51.2624 133.765 47.8753 133.763V133.761ZM48.5252 115.105C45.1136 115.105 41.6998 115.112 38.2882 115.098C37.7897 115.098 37.3891 115.214 37.0064 115.552C34.3225 117.92 31.6297 120.275 28.9258 122.618C28.5653 122.93 28.5208 123.117 28.908 123.45C31.6342 125.809 34.347 128.186 37.0553 130.567C37.3891 130.861 37.7407 130.984 38.1836 130.984C45.009 130.975 51.8344 130.968 58.6598 130.99C59.3541 130.99 59.5611 130.77 59.5566 130.084C59.5321 125.395 59.5277 120.707 59.5588 116.018C59.5633 115.265 59.3118 115.081 58.5974 115.087C55.2415 115.118 51.8833 115.101 48.5252 115.101V115.105ZM81.417 125.767C78.0032 125.767 74.5916 125.78 71.1778 125.756C70.5391 125.752 70.3032 125.927 70.3054 126.602C70.3299 131.346 70.3277 136.091 70.3076 140.836C70.3054 141.45 70.5035 141.654 71.1221 141.652C77.9765 141.637 84.8286 141.639 91.6829 141.648C92.1257 141.648 92.4773 141.528 92.8112 141.232C95.5195 138.85 98.2301 136.474 100.958 134.112C101.348 133.776 101.292 133.587 100.936 133.278C98.2546 130.952 95.5796 128.616 92.9202 126.261C92.4907 125.881 92.0456 125.754 91.4893 125.756C88.1311 125.774 84.7751 125.765 81.417 125.765V125.767ZM59.541 147.053C59.541 144.668 59.5254 142.282 59.5522 139.896C59.5588 139.278 59.3474 139.082 58.7332 139.084C54.0999 139.104 49.4687 139.1 44.8354 139.089C44.3903 139.089 44.0432 139.218 43.7093 139.511C41.001 141.893 38.2904 144.269 35.5643 146.628C35.1682 146.971 35.2438 147.158 35.5954 147.461C38.2993 149.804 40.9899 152.161 43.676 154.524C44.0298 154.836 44.3992 154.978 44.8755 154.976C49.4799 154.963 54.0865 154.958 58.6909 154.98C59.3385 154.983 59.5655 154.791 59.5566 154.128C59.5232 151.771 59.5433 149.412 59.5433 147.053H59.541ZM67.537 137.784C67.537 133.425 67.537 129.067 67.537 124.708C67.537 120.459 67.5259 116.211 67.5481 111.965C67.5503 111.324 67.3745 111.064 66.7002 111.095C65.6476 111.142 64.5905 111.106 63.5357 111.108C62.7286 111.108 62.325 111.519 62.325 112.341C62.325 129.25 62.325 146.156 62.325 163.065C62.325 163.203 62.3384 163.343 62.325 163.481C62.2538 164.087 62.4919 164.332 63.1217 164.309C64.23 164.271 65.3427 164.3 66.4532 164.298C67.1757 164.298 67.5377 163.929 67.5392 163.19C67.5392 154.722 67.5392 146.254 67.5392 137.787L67.537 137.784ZM64.8843 102.992C66.106 102.992 67.3278 103.005 68.5496 102.988C69.551 102.974 70.1897 102.438 70.1608 101.681C70.1341 100.951 69.5221 100.457 68.5585 100.451C66.1439 100.437 63.7293 100.435 61.3125 100.451C60.311 100.457 59.6723 100.998 59.7013 101.755C59.728 102.485 60.34 102.972 61.3036 102.985C62.4964 103.003 63.6914 102.99 64.8843 102.99V102.992ZM64.9132 89.7842C63.3888 89.7842 61.8644 89.7998 60.34 89.7753C59.7791 89.7664 59.6701 89.9734 59.8125 90.4741C60.084 91.431 61.0877 92.2722 62.2449 92.3056C64.0453 92.359 65.8479 92.359 67.6483 92.3012C68.7654 92.2656 69.7491 91.4444 70.0339 90.5208C70.1941 90.0001 70.1029 89.7597 69.4842 89.7731C67.9598 89.8042 66.4354 89.7842 64.911 89.7842H64.9132ZM64.8954 105.776C64.3123 105.776 63.7315 105.772 63.1484 105.776C61.1433 105.796 61.4237 105.534 61.8421 107.508C61.9756 108.14 62.285 108.367 62.9281 108.335C63.9518 108.286 64.98 108.322 66.0059 108.322C67.9598 108.322 67.9442 108.32 68.2914 106.386C68.3737 105.927 68.2491 105.769 67.8063 105.774C66.836 105.781 65.8657 105.776 64.8954 105.774V105.776ZM65.0111 97.6622C65.2604 97.6622 65.5118 97.6667 65.7611 97.6622C67.7751 97.611 67.517 98.0917 67.5414 95.7483C67.5459 95.281 67.35 95.1052 66.8938 95.1119C65.9503 95.1275 65.0067 95.103 64.0631 95.1186C62.0958 95.1497 62.3495 94.7758 62.3273 96.9056C62.3273 96.9612 62.3317 97.0168 62.3273 97.0725C62.3028 97.4998 62.512 97.6711 62.9304 97.6644C63.6247 97.6533 64.319 97.6622 65.0134 97.6644L65.0111 97.6622Z" fill="#3369E7"/>
<path d="M48.9414 124.43C47.8332 124.43 46.7249 124.414 45.6167 124.436C45.087 124.447 44.8734 124.245 44.88 123.709C44.9156 121.216 44.5996 121.692 46.8607 121.657C48.6343 121.63 50.408 121.67 52.1817 121.643C52.7892 121.634 53.0184 121.844 53.0051 122.46C52.9583 124.81 53.2654 124.39 51.1046 124.432C50.3835 124.445 49.6625 124.434 48.9437 124.434L48.9414 124.43Z" fill="black"/>
<path d="M41.0257 121.65C41.901 121.65 42.338 122.14 42.3365 123.121C42.3365 123.996 41.8461 124.433 40.8655 124.432C39.9901 124.432 39.5532 123.942 39.5547 122.961C39.5547 122.087 40.045 121.65 41.0257 121.65Z" fill="black"/>
<path d="M86.3392 132.314C87.4207 132.314 88.5023 132.33 89.5816 132.308C90.1157 132.297 90.3227 132.506 90.3138 133.04C90.2804 135.514 90.5764 135.056 88.4133 135.089C86.6129 135.116 84.8103 135.076 83.0099 135.103C82.4002 135.112 82.1776 134.896 82.191 134.284C82.2377 131.938 81.9306 132.357 84.0937 132.314C84.8415 132.299 85.5892 132.312 86.3392 132.312V132.314Z" fill="black"/>
<path d="M77.5938 132.312H77.6762C79.8148 132.312 79.906 132.423 79.6479 134.538C79.6012 134.911 79.4587 135.089 79.0826 135.087C78.0856 135.083 77.0887 135.087 76.0939 135.087C76.0383 135.087 75.9693 135.096 75.9314 135.069C75.1192 134.493 75.6844 133.659 75.5509 132.953C75.4663 132.506 75.7311 132.301 76.1851 132.314C76.6547 132.328 77.1265 132.317 77.5961 132.317V132.312H77.5938Z" fill="black"/>
<path d="M52.9131 148.42C52.3323 148.42 51.7492 148.42 51.1684 148.42C51.0304 148.42 50.8813 148.446 50.7544 148.406C49.7152 148.064 50.3605 147.202 50.2337 146.586C50.1536 146.194 50.0801 145.642 50.7989 145.645C52.2121 145.649 53.6252 145.645 55.0362 145.645C55.1185 145.645 55.2253 145.627 55.281 145.669C56.071 146.259 55.5079 147.091 55.6437 147.801C55.7305 148.266 55.4256 148.426 54.9894 148.42C54.2973 148.406 53.6052 148.417 52.9131 148.417V148.42Z" fill="black"/>
<path d="M47.6669 147.078C47.6669 148.422 47.6669 148.424 46.2271 148.42C44.7271 148.413 44.894 148.527 44.8874 146.898C44.8807 145.636 44.8874 145.636 46.4096 145.638C47.2493 145.638 47.6692 146.118 47.6692 147.078H47.6669Z" fill="black"/>
</svg>
