<svg width="128" height="191" viewBox="0 0 128 191" fill="none" xmlns="http://www.w3.org/2000/svg">
<circle cx="64" cy="46" r="46" fill="#3369E7"/>
<path d="M48.6354 35.7011C48.6354 36.8326 48.7393 37.8716 48.9471 38.8183C49.1549 39.7419 49.4551 40.5385 49.8476 41.2081C50.2401 41.8547 50.7019 42.3627 51.233 42.7321C51.7872 43.0785 52.3991 43.2516 53.0687 43.2516C53.7383 43.2516 54.3387 43.0785 54.8697 42.7321C55.4239 42.3627 55.8972 41.8547 56.2898 41.2081C56.6823 40.5385 56.9825 39.7419 57.1903 38.8183C57.3981 37.8716 57.502 36.8326 57.502 35.7011C57.502 34.5697 57.3981 33.5422 57.1903 32.6186C56.9825 31.6719 56.6823 30.8753 56.2898 30.2288C55.8972 29.5591 55.4239 29.0512 54.8697 28.7048C54.3387 28.3354 53.7383 28.1506 53.0687 28.1506C52.3991 28.1506 51.7872 28.3354 51.233 28.7048C50.7019 29.0512 50.2401 29.5591 49.8476 30.2288C49.4551 30.8753 49.1549 31.6719 48.9471 32.6186C48.7393 33.5422 48.6354 34.5697 48.6354 35.7011ZM42.9898 35.7011C42.9898 33.0688 43.4054 30.8176 44.2367 28.9472C45.091 27.0769 46.2802 25.6454 47.8041 24.6525C49.3281 23.6365 51.0829 23.1285 53.0687 23.1285C55.1468 23.1285 56.9363 23.6365 58.4372 24.6525C59.938 25.6454 61.0925 27.0769 61.9007 28.9472C62.7319 30.8176 63.1476 33.0688 63.1476 35.7011C63.1476 38.3334 62.7319 40.5847 61.9007 42.455C61.0925 44.3253 59.938 45.7685 58.4372 46.7844C56.9363 47.7773 55.1468 48.2737 53.0687 48.2737C51.0829 48.2737 49.3281 47.7773 47.8041 46.7844C46.2802 45.7685 45.091 44.3253 44.2367 42.455C43.4054 40.5847 42.9898 38.3334 42.9898 35.7011ZM65.2295 47.8235L76.0357 36.6363C76.6822 35.9205 77.2364 35.274 77.6982 34.6967C78.1831 34.1195 78.541 33.5537 78.7719 32.9996C79.0259 32.4223 79.1529 31.8104 79.1529 31.1639C79.1529 30.7945 79.0836 30.425 78.945 30.0556C78.8065 29.6861 78.5987 29.3629 78.3216 29.0858C78.0445 28.7856 77.6982 28.5547 77.2826 28.3931C76.8669 28.2084 76.382 28.116 75.8279 28.116C75.089 28.116 74.4309 28.3007 73.8537 28.6702C73.2995 29.0396 72.8723 29.5591 72.5722 30.2288C72.2951 30.8984 72.1565 31.6719 72.1565 32.5493H66.4071C66.4071 30.8176 66.765 29.2359 67.4808 27.8043C68.1966 26.3727 69.2703 25.2297 70.7018 24.3754C72.1565 23.5211 73.9229 23.0939 76.001 23.0939C77.5019 23.0939 78.8296 23.3248 79.9841 23.7866C81.1386 24.2253 82.0969 24.8256 82.8588 25.5876C83.6439 26.3265 84.2327 27.1462 84.6252 28.0467C85.0178 28.9472 85.214 29.8593 85.214 30.7829C85.214 32.0991 84.8908 33.3113 84.2442 34.4196C83.5977 35.5049 82.7549 36.4977 81.7159 37.3983L76.0703 42.455H85.7682V47.8235H65.2295Z" fill="white"/>
<circle cx="64" cy="127" r="64" fill="white"/>
<path d="M64.0641 147.02C73.8315 147.02 83.5988 147.022 93.3662 147.019C95.4421 147.019 96.9703 145.925 97.3498 144.039C97.6311 142.642 97.4303 141.207 97.4408 139.79C97.4432 139.471 97.1758 139.448 96.933 139.448C96.1741 139.446 95.4152 139.446 94.6563 139.446C91.5823 139.446 88.5082 139.446 85.4342 139.446C84.6391 139.446 84.6192 139.422 84.6169 138.627C84.6157 138.238 84.6438 137.846 84.6099 137.461C84.5609 136.892 84.8025 136.729 85.3524 136.731C89.0885 136.75 92.8233 136.741 96.5594 136.741C97.1579 136.741 97.4576 136.444 97.4583 135.85C97.4583 123.787 97.4583 111.723 97.4583 99.6604C97.4583 97.2915 95.8647 95.6921 93.5098 95.6886C92.0703 95.6862 90.6296 95.6675 89.1912 95.6979C88.6215 95.7096 88.4253 95.4994 88.4639 94.9495C88.4977 94.465 88.4755 93.977 88.472 93.4913C88.4709 93.2006 88.5608 92.9834 88.8935 92.9881C90.8561 93.0208 92.8327 92.792 94.7789 93.0955C97.8962 93.5812 100.169 96.3377 100.17 99.4981C100.173 114.013 100.17 128.527 100.17 143.042C100.17 146.849 97.3007 149.727 93.476 149.731C87.58 149.74 81.6853 149.734 75.7894 149.734C75.6142 149.734 75.4391 149.743 75.264 149.734C74.8028 149.707 74.7013 149.923 74.7795 150.349C75.0083 151.611 75.2278 152.877 75.4134 154.146C75.4776 154.587 75.6715 154.774 76.0988 154.727C77.8757 154.533 78.4384 155.304 78.3322 157.033C78.2878 157.75 78.3462 158.474 78.3182 159.192C78.2983 159.693 78.4746 159.885 78.9895 159.875C80.2341 159.848 81.4798 159.864 82.7255 159.868C83.4424 159.87 83.4704 159.902 83.4751 160.637C83.4786 161.104 83.4669 161.571 83.4751 162.038C83.4821 162.398 83.3362 162.589 82.9602 162.576C82.7851 162.571 82.61 162.579 82.4348 162.579C70.197 162.579 57.958 162.579 45.7202 162.579C45.5252 162.579 45.3314 162.575 45.1364 162.572C44.8504 162.568 44.7056 162.421 44.7044 162.137C44.7021 161.534 44.7044 160.931 44.7021 160.328C44.7021 159.92 44.9648 159.867 45.2905 159.868C46.5748 159.871 47.859 159.849 49.1421 159.877C49.6722 159.889 49.873 159.715 49.8543 159.175C49.8228 158.223 49.8345 157.269 49.8508 156.316C49.8683 155.268 50.4089 154.741 51.448 154.732C52.8536 154.719 52.6143 154.866 52.8572 153.495C53.0334 152.5 53.1876 151.5 53.3533 150.503C53.4748 149.768 53.4561 149.737 52.7135 149.737C47.9268 149.735 43.1411 149.748 38.3543 149.729C36.7619 149.723 35.1635 149.85 33.5746 149.635C30.4433 149.205 28.0032 146.418 28.002 143.254C27.9997 128.643 27.9985 114.03 28.0032 99.4187C28.0032 95.9256 30.9535 92.9869 34.4514 92.9753C35.9691 92.9706 37.4869 92.9904 39.0035 92.9659C39.5382 92.9578 39.7449 93.1492 39.7075 93.6804C39.6748 94.1451 39.683 94.6144 39.7052 95.0803C39.7273 95.5415 39.5219 95.6932 39.0794 95.6886C37.6013 95.6734 36.1221 95.6816 34.6428 95.6839C32.3207 95.6886 30.713 97.2927 30.7118 99.6161C30.7095 111.718 30.7118 123.82 30.7118 135.922C30.7118 136.734 30.7142 136.736 31.5116 136.737C35.2464 136.737 38.9825 136.737 42.7173 136.737C43.5498 136.737 43.5498 136.741 43.5533 137.589C43.5544 137.94 43.5544 138.29 43.5533 138.64C43.5498 139.42 43.5311 139.441 42.7185 139.441C39.683 139.442 36.6486 139.441 33.6131 139.441C32.8542 139.441 32.0953 139.455 31.3364 139.436C30.8998 139.426 30.6967 139.567 30.7048 140.036C30.7258 141.164 30.6896 142.294 30.7177 143.421C30.7655 145.315 32.3907 146.904 34.3533 147.006C34.6253 147.02 34.8974 147.016 35.1706 147.016C44.8013 147.016 54.4321 147.016 64.0641 147.016V147.02ZM64.0839 154.726C66.7867 154.726 69.4895 154.717 72.1923 154.734C72.6441 154.738 72.7784 154.602 72.699 154.161C72.4643 152.86 72.2413 151.559 72.0405 150.252C71.9821 149.868 71.821 149.727 71.4346 149.727C66.5345 149.735 61.6345 149.735 56.7344 149.727C56.3492 149.727 56.1869 149.867 56.1273 150.251C55.93 151.538 55.7117 152.822 55.4747 154.101C55.3836 154.594 55.5296 154.74 56.0328 154.735C58.7157 154.714 61.3998 154.725 64.0828 154.725L64.0839 154.726ZM64.0886 159.863H74.065C75.1025 159.863 75.6201 159.337 75.6177 158.283C75.6154 157.439 75.6154 157.437 74.7865 157.437C67.9215 157.437 61.0566 157.437 54.1916 157.437C52.5419 157.437 52.5653 157.437 52.5396 159.109C52.5302 159.693 52.6984 159.881 53.2961 159.876C56.8932 159.851 60.4915 159.863 64.0898 159.864L64.0886 159.863Z" fill="#3369E7"/>
<path d="M50.2945 125.682C49.4971 125.682 48.6997 125.683 47.9011 125.682C45.4739 125.676 43.962 124.208 43.8943 121.78C43.8744 121.041 43.8662 120.301 43.8966 119.563C43.9164 119.074 43.7075 118.81 43.272 118.638C42.812 118.457 42.3368 118.365 41.8511 118.348C40.1057 118.286 38.7922 116.225 39.7578 114.602C41.07 112.397 42.2457 110.112 43.5043 107.875C43.7938 107.361 43.8989 106.846 43.8954 106.266C43.8779 103.511 44.4266 100.89 45.8954 98.521C48.1498 94.8877 51.3897 92.6963 55.6149 92.0354C57.6207 91.7214 59.6545 91.9 61.6743 91.9257C63.0414 91.9432 64.0606 93.1808 64.0898 94.6682C64.1108 95.7178 64.1073 96.7697 64.0898 97.8193C64.0828 98.2116 64.2089 98.4556 64.5522 98.6716C65.5912 99.3277 66.0594 100.487 65.8049 101.643C65.5574 102.77 64.6584 103.581 63.4465 103.771C62.2942 103.952 61.0088 103.225 60.5558 102.137C60.0701 100.968 60.3783 99.5484 61.3859 98.8899C61.979 98.5023 62.1553 98.0645 62.1191 97.399C62.0689 96.4872 62.1027 95.5707 62.1039 94.6565C62.1039 94.1732 61.8774 93.8334 61.3894 93.8381C59.0439 93.8556 56.6878 93.6303 54.3715 94.2759C50.0424 95.4819 46.5527 99.5087 45.9993 103.97C45.8767 104.961 45.9024 105.95 45.9012 106.94C45.9012 107.406 45.7774 107.807 45.5521 108.211C44.2247 110.588 42.9089 112.972 41.5966 115.358C41.2452 115.996 41.4693 116.383 42.2224 116.427C43.3887 116.495 44.4091 116.921 45.328 117.627C45.7132 117.923 45.9024 118.286 45.8977 118.776C45.8849 119.827 45.8884 120.878 45.8977 121.927C45.9059 123.019 46.5492 123.67 47.6385 123.676C49.4084 123.685 51.1795 123.682 52.9495 123.676C53.7177 123.674 53.9173 123.473 53.9208 122.706C53.9278 121.48 53.901 120.254 53.9325 119.029C53.9465 118.495 53.8099 118.143 53.3312 117.828C52.3844 117.205 52.0155 116.258 52.1952 115.14C52.375 114.022 53.0382 113.271 54.1228 112.941C55.1852 112.617 56.1379 112.88 56.912 113.657C58.104 114.852 57.9149 116.88 56.501 117.836C56.048 118.142 55.9056 118.475 55.9173 118.987C55.9441 120.193 55.9324 121.399 55.9243 122.606C55.9114 124.507 54.7568 125.667 52.8677 125.68C52.0119 125.685 51.1562 125.68 50.2992 125.68L50.2945 125.682ZM55.7655 115.632C55.7958 115.173 55.4351 114.762 54.9728 114.728C54.5198 114.696 54.1006 115.063 54.0703 115.521C54.0399 115.978 54.403 116.392 54.863 116.422C55.3207 116.454 55.734 116.091 55.7643 115.631L55.7655 115.632ZM63.0881 101.847C63.5831 101.854 63.9451 101.509 63.9474 101.028C63.9497 100.552 63.5796 100.189 63.0928 100.19C62.6421 100.19 62.2405 100.603 62.251 101.052C62.2615 101.479 62.6421 101.841 63.0869 101.848L63.0881 101.847Z" fill="#3369E7"/>
<path d="M72.2264 94.6005C72.7903 94.6005 73.3554 94.5853 73.9181 94.6052C74.6093 94.6285 74.9443 94.9718 74.9642 95.6676C74.9805 96.2315 74.9817 96.7966 74.9654 97.3593C74.956 97.6781 75.0809 97.8544 75.374 97.9805C75.6729 98.1089 75.848 97.9746 76.036 97.7832C76.4318 97.3804 76.824 96.9741 77.2362 96.59C77.7382 96.1218 78.2367 96.1113 78.7329 96.59C79.5595 97.3862 80.3709 98.1976 81.1672 99.0242C81.6458 99.5216 81.6318 100.07 81.1602 100.582C80.8438 100.925 80.5005 101.242 80.176 101.578C79.9518 101.809 79.6517 102.006 79.8105 102.417C79.9821 102.864 80.3616 102.771 80.7002 102.779C81.1672 102.788 81.6342 102.77 82.1 102.787C82.8064 102.814 83.1333 103.143 83.1391 103.841C83.1484 104.989 83.1496 106.137 83.1391 107.284C83.1321 108.012 82.8169 108.346 82.0732 108.39C81.5303 108.423 80.9839 108.409 80.4398 108.403C80.1409 108.399 79.9214 108.486 79.7848 108.779C79.6401 109.087 79.8292 109.248 80.0102 109.428C80.3954 109.812 80.7901 110.189 81.1613 110.587C81.6342 111.095 81.647 111.646 81.1672 112.145C80.3849 112.957 79.5887 113.758 78.7726 114.536C78.2262 115.056 77.7452 115.038 77.179 114.518C76.8205 114.19 76.4866 113.835 76.1422 113.492C75.9215 113.272 75.7336 113.039 75.3448 113.19C74.9525 113.341 74.97 113.634 74.9712 113.948C74.9724 114.474 74.9829 114.999 74.9654 115.523C74.9443 116.164 74.6455 116.529 74.0068 116.549C72.802 116.587 71.5948 116.587 70.3899 116.549C69.7524 116.528 69.4559 116.164 69.4349 115.521C69.4185 115.016 69.4314 114.51 69.429 114.005C69.4267 113.679 69.4804 113.351 69.0543 113.188C68.6631 113.039 68.4775 113.277 68.258 113.494C67.9136 113.838 67.5797 114.192 67.2213 114.521C66.6574 115.037 66.174 115.055 65.6276 114.535C64.8115 113.756 64.0153 112.956 63.2331 112.142C62.7532 111.644 62.7684 111.094 63.2412 110.585C63.6125 110.187 64.0059 109.81 64.3924 109.426C64.5745 109.245 64.7602 109.083 64.6154 108.775C64.4776 108.481 64.257 108.396 63.9581 108.402C63.5308 108.409 63.1023 108.392 62.6738 108.402C62.2804 108.41 62.1298 108.224 62.1029 107.84C62.0048 106.43 62.0247 106.399 63.4304 106.399C63.9359 106.399 64.4414 106.399 64.9481 106.403C65.5669 106.406 65.9814 106.682 66.1507 107.297C66.2849 107.786 66.4764 108.252 66.7344 108.692C67.0193 109.177 66.9376 109.63 66.5651 110.029C66.2336 110.385 65.8915 110.731 65.5424 111.069C65.3346 111.271 65.3252 111.428 65.5249 111.659C66.3421 112.609 66.3386 112.615 67.2411 111.715C67.4338 111.522 67.6206 111.323 67.8319 111.151C68.1938 110.858 68.5896 110.775 69.0216 111.02C69.5143 111.301 70.042 111.496 70.5837 111.661C71.0939 111.818 71.3426 112.174 71.3426 112.707C71.3426 113.174 71.3507 113.641 71.3461 114.108C71.3426 114.418 71.478 114.554 71.7944 114.587C72.9759 114.706 73.0576 114.642 73.0576 113.463C73.0576 113.191 73.0553 112.918 73.0623 112.646C73.0752 112.163 73.3098 111.827 73.7687 111.681C74.3454 111.498 74.9058 111.284 75.4382 110.996C75.9064 110.743 76.3092 110.909 76.6629 111.231C76.9793 111.518 77.2875 111.817 77.5736 112.135C77.8538 112.448 78.0791 112.474 78.3862 112.153C79.2886 111.207 79.2256 111.475 78.4002 110.614C78.1982 110.404 77.9869 110.201 77.7966 109.981C77.4708 109.605 77.3984 109.191 77.6553 108.744C77.9273 108.269 78.134 107.763 78.2858 107.24C78.4527 106.666 78.8438 106.423 79.4077 106.408C79.835 106.396 80.2635 106.388 80.6908 106.404C81.0971 106.419 81.2617 106.238 81.2314 105.845C81.2209 105.709 81.2174 105.572 81.2325 105.436C81.2921 104.921 81.0598 104.716 80.5577 104.771C80.4235 104.785 80.2857 104.773 80.1491 104.773C78.643 104.773 78.6103 104.745 78.0884 103.356C77.9659 103.029 77.8059 102.716 77.6483 102.404C77.4078 101.927 77.472 101.502 77.8421 101.122C78.1818 100.774 78.5204 100.425 78.873 100.09C79.1042 99.8695 79.1018 99.699 78.8824 99.455C78.0698 98.549 78.0791 98.542 77.228 99.3908C77.0213 99.5963 76.8217 99.8111 76.5987 99.9991C76.2403 100.303 75.8281 100.386 75.4055 100.157C74.8895 99.8777 74.3512 99.6593 73.7955 99.4795C73.2841 99.3149 73.0471 98.9612 73.0565 98.4241C73.0647 97.9571 73.0448 97.4901 73.0588 97.0243C73.0705 96.646 72.9035 96.5234 72.5358 96.5094C71.3437 96.4662 71.3437 96.4545 71.3437 97.6372C71.3437 97.8509 71.3449 98.0657 71.3437 98.2793C71.3356 99.0768 71.1826 99.2787 70.4121 99.5484C70.1365 99.6442 69.8435 99.7154 69.5983 99.8648C69.1103 100.161 68.7706 100.108 68.5651 99.5461C68.5522 99.5099 68.5242 99.4807 68.5032 99.4469C67.9311 98.4977 67.9206 98.4755 68.9177 98.0388C69.3263 97.8602 69.4641 97.6162 69.4372 97.1924C69.4068 96.7079 69.4232 96.2199 69.4337 95.7342C69.45 94.9671 69.7793 94.6262 70.5358 94.6075C71.0997 94.5935 71.6636 94.6052 72.2276 94.6052L72.2264 94.6005Z" fill="black"/>
<path d="M64.4759 135.623C61.403 135.623 58.3301 135.624 55.2572 135.623C54.2403 135.623 53.9309 135.322 53.9216 134.311C53.9134 133.397 53.9274 132.483 53.9181 131.568C53.9134 131.175 54.0745 131.009 54.475 131.014C56.1282 131.033 55.9028 130.85 55.9215 132.371C55.9402 133.899 55.7441 133.706 57.2548 133.707C62.2529 133.714 67.2522 133.711 72.2503 133.71C73.0535 133.71 73.0547 133.707 73.0559 132.899C73.057 131.441 73.0524 129.982 73.0582 128.524C73.0617 127.779 73.3501 127.337 74.0623 127.355C75.9244 127.403 77.3056 125.246 77.587 123.545C77.6722 123.034 77.6173 122.497 77.601 121.973C77.5846 121.444 77.3056 121.137 76.7592 121.136C73.8218 121.131 70.8855 121.136 67.948 121.127C67.5943 121.127 67.4413 121.333 67.2767 121.59C66.6498 122.57 65.7263 122.981 64.5879 122.873C63.522 122.771 62.8052 122.147 62.3708 121.2C61.8058 119.967 62.3522 118.397 63.5594 117.707C64.7245 117.041 66.3906 117.348 67.1086 118.457C67.4693 119.014 67.8745 119.157 68.4921 119.151C71.1949 119.123 73.8988 119.138 76.6028 119.137C78.3809 119.137 79.4422 120.273 79.5402 122.049C79.6511 124.049 79.1736 125.817 77.9092 127.372C77.2799 128.145 76.5222 128.744 75.5649 129.031C75.1119 129.167 74.9507 129.383 74.9589 129.856C74.9858 131.392 74.9729 132.929 74.9671 134.465C74.9636 135.334 74.6764 135.622 73.8113 135.622C70.6998 135.626 67.5873 135.623 64.4759 135.623ZM64.909 119.286C64.449 119.292 64.0766 119.695 64.0952 120.165C64.1128 120.624 64.5214 120.998 64.9826 120.977C65.4017 120.958 65.7858 120.551 65.7835 120.125C65.7811 119.684 65.3585 119.279 64.9078 119.285L64.909 119.286Z" fill="black"/>
<path d="M72.2182 109.231C70.14 109.234 68.5137 107.618 68.5137 105.548C68.5137 103.551 70.2007 101.881 72.2088 101.893C74.2333 101.904 75.8923 103.563 75.8842 105.567C75.8748 107.612 74.2613 109.226 72.2182 109.229V109.231ZM72.2217 103.844C71.1954 103.834 70.4155 104.584 70.4132 105.583C70.4109 106.497 71.2433 107.324 72.1761 107.332C73.1148 107.342 73.9566 106.548 73.9846 105.629C74.0138 104.636 73.2409 103.852 72.2217 103.844Z" fill="black"/>
<path d="M51.7217 109.225C51.1964 109.225 50.6698 109.252 50.1468 109.219C48.9676 109.144 48.1083 107.726 48.5706 106.655C48.6559 106.458 48.8193 106.422 48.9979 106.417C49.2898 106.409 49.5817 106.417 49.8736 106.41C50.2157 106.401 50.4445 106.507 50.4375 106.899C50.4316 107.227 50.622 107.337 50.9232 107.335C51.4871 107.33 52.051 107.329 52.6161 107.335C52.9254 107.338 53.0971 107.211 53.0912 106.889C53.0854 106.536 53.2804 106.405 53.6061 106.412C53.6843 106.415 53.7614 106.41 53.8396 106.41C54.9943 106.396 55.1963 106.654 54.9231 107.798C54.7059 108.706 54.0731 109.214 53.1239 109.231C52.6569 109.239 52.1899 109.232 51.7229 109.232V109.226L51.7217 109.225Z" fill="black"/>
<path d="M53.1443 136.743C53.6486 136.743 54.1518 136.746 54.6562 136.743C54.9679 136.741 55.1185 136.884 55.1174 137.199C55.1139 137.781 55.1103 138.362 55.1209 138.944C55.1267 139.288 54.9667 139.442 54.6328 139.442C53.644 139.442 52.6562 139.44 51.6674 139.442C51.3078 139.442 51.1315 139.275 51.1338 138.913C51.1373 138.352 51.135 137.789 51.1338 137.227C51.1338 136.893 51.2879 136.732 51.6323 136.741C52.1355 136.751 52.6399 136.743 53.1443 136.744V136.743Z" fill="black"/>
<path d="M75.0715 136.741C75.5175 136.741 75.9635 136.759 76.4083 136.735C76.8497 136.711 77.0575 136.874 77.0411 137.332C77.0236 137.836 77.0283 138.34 77.0388 138.844C77.0481 139.255 76.8754 139.45 76.4539 139.447C75.5047 139.438 74.5543 139.439 73.6052 139.447C73.2222 139.45 73.0319 139.303 73.0459 138.897C73.0634 138.374 73.0646 137.85 73.0459 137.328C73.0307 136.911 73.1872 136.721 73.6192 136.738C74.1025 136.758 74.5882 136.743 75.0727 136.743L75.0715 136.741Z" fill="#3369E7"/>
<path d="M93.6938 141.876C95.159 141.894 95.0295 141.684 95.0295 143.212C95.0295 144.68 95.1906 144.583 93.6471 144.582C92.127 144.579 92.3255 144.695 92.3243 143.231C92.3232 141.687 92.155 141.895 93.6938 141.876Z" fill="#3369E7"/>
<path d="M59.4567 106.402C60.1261 106.402 60.4607 106.735 60.4607 107.402C60.4607 108.069 60.107 108.403 59.3995 108.403C58.7815 108.403 58.4729 108.05 58.4736 107.344C58.4736 106.716 58.8017 106.402 59.4578 106.402H59.4567Z" fill="black"/>
<path d="M55.9201 128.312C55.9201 128.971 55.5877 129.3 54.923 129.3C54.2583 129.3 53.9236 128.973 53.9189 128.319C53.9189 127.648 54.2513 127.313 54.916 127.313C55.5846 127.313 55.9193 127.646 55.9201 128.313V128.312Z" fill="black"/>
<path d="M59.4569 112.021C58.8007 112.021 58.4727 111.706 58.4727 111.075C58.4727 110.379 58.8136 110.032 59.4954 110.033C60.4516 110.033 60.4598 110.042 60.4609 111.017C60.4609 111.686 60.1266 112.021 59.458 112.021H59.4569Z" fill="black"/>
</svg>
