<svg width="128" height="191" viewBox="0 0 128 191" fill="none" xmlns="http://www.w3.org/2000/svg">
<circle cx="64.5" cy="46" r="46" fill="#3369E7"/>
<path d="M50.3917 35.7011C50.3917 36.8326 50.4956 37.8716 50.7034 38.8183C50.9112 39.7419 51.2114 40.5385 51.6039 41.2081C51.9964 41.8547 52.4582 42.3627 52.9893 42.7321C53.5435 43.0785 54.1554 43.2516 54.825 43.2516C55.4946 43.2516 56.0949 43.0785 56.626 42.7321C57.1802 42.3627 57.6535 41.8547 58.0461 41.2081C58.4386 40.5385 58.7388 39.7419 58.9466 38.8183C59.1544 37.8716 59.2583 36.8326 59.2583 35.7011C59.2583 34.5697 59.1544 33.5422 58.9466 32.6186C58.7388 31.6719 58.4386 30.8753 58.0461 30.2288C57.6535 29.5591 57.1802 29.0512 56.626 28.7048C56.0949 28.3354 55.4946 28.1506 54.825 28.1506C54.1554 28.1506 53.5435 28.3354 52.9893 28.7048C52.4582 29.0512 51.9964 29.5591 51.6039 30.2288C51.2114 30.8753 50.9112 31.6719 50.7034 32.6186C50.4956 33.5422 50.3917 34.5697 50.3917 35.7011ZM44.7461 35.7011C44.7461 33.0688 45.1617 30.8176 45.993 28.9472C46.8473 27.0769 48.0365 25.6454 49.5604 24.6525C51.0844 23.6365 52.8392 23.1285 54.825 23.1285C56.9031 23.1285 58.6926 23.6365 60.1934 24.6525C61.6943 25.6454 62.8488 27.0769 63.657 28.9472C64.4882 30.8176 64.9038 33.0688 64.9038 35.7011C64.9038 38.3334 64.4882 40.5847 63.657 42.455C62.8488 44.3253 61.6943 45.7685 60.1934 46.7844C58.6926 47.7773 56.9031 48.2737 54.825 48.2737C52.8392 48.2737 51.0844 47.7773 49.5604 46.7844C48.0365 45.7685 46.8473 44.3253 45.993 42.455C45.1617 40.5847 44.7461 38.3334 44.7461 35.7011ZM75.8178 36.0821V33.4498C76.4874 33.4498 77.0877 33.369 77.6188 33.2074C78.173 33.0227 78.6463 32.7802 79.0388 32.48C79.4545 32.1799 79.7662 31.8335 79.974 31.441C80.1818 31.0485 80.2857 30.6328 80.2857 30.1941C80.2857 29.7323 80.1818 29.3167 79.974 28.9472C79.7662 28.5778 79.466 28.3007 79.0735 28.116C78.6809 27.9082 78.173 27.8043 77.5495 27.8043C76.6259 27.8043 75.8639 28.0698 75.2636 28.6009C74.6632 29.132 74.3631 29.8247 74.3631 30.679H68.9946C68.9946 29.2474 69.341 27.9659 70.0337 26.8345C70.7495 25.68 71.7539 24.7795 73.0469 24.1329C74.34 23.4633 75.8408 23.1285 77.5495 23.1285C79.3736 23.1285 80.9207 23.4287 82.1906 24.029C83.4606 24.6294 84.4189 25.4375 85.0654 26.4535C85.735 27.4695 86.0698 28.6009 86.0698 29.8478C86.0698 31.2332 85.608 32.3877 84.6844 33.3113C83.7839 34.2349 82.5601 34.9276 81.013 35.3894C79.466 35.8512 77.7342 36.0821 75.8178 36.0821ZM77.2724 48.3777C75.8178 48.3777 74.5132 48.1583 73.3586 47.7196C72.2041 47.2809 71.2228 46.669 70.4146 45.8839C69.6296 45.0988 69.0177 44.2099 68.579 43.217C68.1634 42.2241 67.9555 41.1966 67.9555 40.1345H73.705C73.705 40.9195 73.8782 41.5776 74.2245 42.1087C74.5709 42.6397 75.0327 43.0323 75.6099 43.2863C76.2103 43.5403 76.8337 43.6673 77.4802 43.6673C78.173 43.6673 78.7733 43.5633 79.2813 43.3555C79.8124 43.1477 80.228 42.8129 80.5282 42.3511C80.8283 41.8893 80.9784 41.3236 80.9784 40.654C80.9784 40.146 80.8745 39.6842 80.6667 39.2686C80.4589 38.8529 80.1356 38.495 79.6969 38.1949C79.2813 37.8716 78.7502 37.6292 78.1037 37.4675C77.4572 37.3059 76.6952 37.2251 75.8178 37.2251V34.2464C77.411 34.2464 78.8657 34.385 80.1818 34.6621C81.521 34.9161 82.6871 35.3317 83.68 35.9089C84.6728 36.4631 85.4348 37.1789 85.9659 38.0563C86.497 38.9338 86.7625 39.9844 86.7625 41.2081C86.7625 42.6166 86.3815 43.8635 85.6195 44.9488C84.8576 46.0109 83.7723 46.8537 82.3638 47.4771C80.9553 48.0775 79.2582 48.3777 77.2724 48.3777Z" fill="white"/>
<circle cx="64" cy="127" r="64" fill="white"/>
<g clip-path="url(#clip0_2474_118)">
<path d="M73.4882 166.749C71.3014 166.27 69.328 165.395 67.7174 163.78C66.3307 162.392 65.3606 160.773 64.9004 158.868C63.9262 154.826 62.9478 150.786 62.0337 146.729C61.3911 143.883 62.2306 141.419 64.2247 139.333C65.1347 138.382 66.0571 137.435 67.0272 136.543C67.6262 135.994 67.8625 135.405 67.8563 134.582C67.8231 129.595 67.8273 124.606 67.8563 119.616C67.8687 117.525 69.44 115.653 71.4527 115.201C74.336 114.555 77.0722 116.719 77.0908 119.724C77.1198 124.583 77.0991 129.442 77.1012 134.303C77.1012 135.3 77.1012 135.283 78.0796 135.099C79.8809 134.761 81.4106 135.266 82.588 136.684C82.8906 137.051 83.0917 137.117 83.5332 136.892C85.6205 135.822 87.6333 136.212 89.1941 137.988C89.5341 138.374 89.7683 138.409 90.2264 138.185C93.4061 136.624 96.9445 138.813 96.9652 142.364C96.9901 146.99 96.9797 151.617 96.9714 156.244C96.9611 161.173 93.686 165.329 88.8956 166.525C88.622 166.593 88.3505 166.674 88.0769 166.749H73.4924H73.4882ZM67.8418 139.702C67.761 139.65 67.6822 139.599 67.6014 139.547C67.0728 140.133 66.5504 140.724 66.0177 141.307C64.7222 142.725 64.2288 144.372 64.66 146.25C65.5161 149.977 66.3929 153.698 67.2738 157.419C68.3414 161.927 71.2288 164.199 75.8823 164.203C79.1408 164.205 82.3973 164.205 85.6558 164.203C86.4828 164.203 87.312 164.149 88.1183 163.959C92.009 163.04 94.3513 159.927 94.3679 155.622C94.3845 151.459 94.3762 147.295 94.3659 143.133C94.3659 142.698 94.3161 142.252 94.2166 141.829C93.9948 140.89 93.1076 140.231 92.2329 140.301C91.2172 140.382 90.4814 141.137 90.4212 142.188C90.386 142.807 90.4254 143.429 90.3839 144.049C90.3155 145.056 89.7994 145.595 88.9868 145.573C88.1909 145.55 87.7245 144.963 87.7162 143.954C87.7079 142.998 87.7431 142.038 87.6996 141.085C87.6436 139.854 86.744 138.979 85.6413 139.01C84.5116 139.043 83.784 139.858 83.7591 141.128C83.7488 141.62 83.7633 142.111 83.7529 142.602C83.7301 143.608 83.187 144.271 82.3994 144.269C81.5972 144.267 81.0748 143.626 81.0603 142.598C81.0458 141.616 81.0831 140.631 81.0354 139.65C80.9795 138.517 80.0653 137.625 79.0559 137.642C77.9863 137.658 77.1343 138.573 77.1032 139.746C77.0867 140.393 77.1323 141.041 77.0722 141.684C77.01 142.372 76.6286 142.834 75.8927 142.901C75.1776 142.965 74.6469 142.586 74.4832 141.854C74.4065 141.506 74.4044 141.137 74.4044 140.776C74.4003 134.493 74.4023 128.21 74.4003 121.928C74.4003 121.152 74.4189 120.375 74.3795 119.602C74.3339 118.659 73.6478 117.917 72.7627 117.782C71.8382 117.641 70.9594 118.172 70.6236 119.084C70.4515 119.552 70.4308 120.039 70.4308 120.535C70.4349 127.98 70.4328 135.428 70.4308 142.874C70.4308 143.185 70.4494 143.498 70.4038 143.802C70.294 144.549 69.6079 145.048 68.8865 144.893C68.1859 144.741 67.8397 144.271 67.8377 143.556C67.8356 142.273 67.8377 140.987 67.8377 139.704L67.8418 139.702Z" fill="#3369E7"/>
<path d="M32.0062 119.034C32.0062 109.88 32.0062 100.727 32.0062 91.5731C32.0062 88.8162 33.5733 87.2512 36.3364 87.2512C51.1282 87.2512 65.9179 87.2512 80.7097 87.2512C83.4707 87.2512 85.0233 88.81 85.0233 91.5814C85.0233 104.976 85.0233 118.371 85.0233 131.765C85.0233 132.049 85.0481 132.344 84.9859 132.615C84.8305 133.277 84.3827 133.637 83.7008 133.623C83.025 133.608 82.5732 133.254 82.4612 132.57C82.4073 132.242 82.4322 131.9 82.4322 131.562C82.4322 118.4 82.4322 105.237 82.4322 92.0768C82.4322 90.2444 82.0301 89.8423 80.1977 89.8423C65.7686 89.8423 51.3396 89.8423 36.9106 89.8443C36.5499 89.8443 36.1851 89.8526 35.8306 89.9107C35.1694 90.0185 34.7693 90.4247 34.6698 91.088C34.6201 91.4176 34.6097 91.7576 34.6097 92.0913C34.6076 110.09 34.6076 128.086 34.6097 146.085C34.6097 146.317 34.6014 146.551 34.6221 146.783C34.7154 147.77 35.188 148.226 36.1788 148.236C37.7563 148.253 39.3337 148.242 40.9111 148.242C46.4456 148.242 51.978 148.242 57.5125 148.242C57.7447 148.242 57.9789 148.238 58.2111 148.245C59.2268 148.269 59.8714 148.812 59.8465 149.617C59.8237 150.377 59.1812 150.931 58.2214 150.935C54.652 150.95 51.0846 150.941 47.5152 150.943C43.7924 150.943 40.0675 150.95 36.3447 150.939C34.7424 150.935 33.4157 150.375 32.5452 148.956C32.1078 148.249 32 147.473 32 146.653C32.0104 137.447 32.0062 128.242 32.0062 119.036V119.034Z" fill="#3369E7"/>
<path d="M65.1881 108.452C61.8301 108.452 58.4721 108.452 55.1141 108.452C54.8302 108.452 54.5358 108.469 54.2663 108.398C53.659 108.241 53.2776 107.855 53.2507 107.194C53.2237 106.545 53.5305 106.114 54.1316 105.886C54.5027 105.745 54.8923 105.764 55.28 105.764C61.8405 105.764 68.4031 105.764 74.9637 105.764C75.3513 105.764 75.741 105.751 76.1162 105.876C76.7608 106.089 77.107 106.551 77.0697 107.215C77.0324 107.886 76.6157 108.297 75.9565 108.423C75.7057 108.471 75.4425 108.454 75.1834 108.454C71.8503 108.454 68.5192 108.454 65.1861 108.454L65.1881 108.452Z" fill="black"/>
<path d="M44.7641 99.2033C45.9124 99.195 46.4597 99.5971 46.5322 100.345C46.611 101.152 46.1467 101.664 45.1932 101.796C43.9951 101.962 43.0934 102.516 42.7244 103.722C42.3948 104.802 42.7451 105.855 43.6551 106.56C44.4283 107.159 45.3051 107.306 46.2109 106.929C47.0981 106.558 47.6764 105.892 47.8443 104.918C47.8526 104.868 47.8526 104.814 47.8588 104.765C48.0019 103.658 48.5491 103.073 49.3575 103.158C50.1929 103.247 50.6758 104.045 50.5328 105.103C50.1721 107.787 47.836 109.849 45.2077 109.808C42.5379 109.766 40.2577 107.687 39.9572 105.018C39.6649 102.422 41.4434 99.9412 44.0572 99.311C44.3557 99.2385 44.6667 99.2198 44.7662 99.2053L44.7641 99.2033Z" fill="black"/>
<path d="M39.9347 133.629C39.9534 130.797 42.3599 128.343 45.0857 128.376C45.9377 128.387 46.4787 128.828 46.5326 129.562C46.5885 130.316 46.1636 130.812 45.3158 130.984C43.3694 131.38 42.5651 132.244 42.6398 133.859C42.6978 135.128 43.7487 136.199 45.0235 136.286C46.402 136.382 47.6187 135.459 47.8343 134.149C47.855 134.023 47.855 133.892 47.8716 133.764C48.0126 132.785 48.5805 132.257 49.3786 132.36C50.1662 132.462 50.6161 133.125 50.5476 134.083C50.3922 136.253 48.7774 138.183 46.6258 138.774C43.2741 139.692 39.9098 137.105 39.9347 133.627V133.629Z" fill="black"/>
<path d="M39.9365 119.092C39.9324 116.217 42.3493 113.738 45.1083 113.79C45.9602 113.806 46.4929 114.252 46.5364 114.992C46.5821 115.749 46.1509 116.236 45.2969 116.387C43.4541 116.715 42.5918 117.631 42.6395 119.212C42.6789 120.508 43.7547 121.619 45.0502 121.704C46.4183 121.793 47.633 120.854 47.8403 119.542C47.8734 119.339 47.8755 119.129 47.9211 118.928C48.089 118.159 48.6487 117.699 49.3286 117.759C50.0437 117.821 50.537 118.402 50.5619 119.204C50.6282 121.399 48.8414 123.623 46.5364 124.212C43.2427 125.056 39.9448 122.496 39.9386 119.092H39.9365Z" fill="black"/>
<path d="M62.4475 103.164C60.0181 103.164 57.5888 103.164 55.1615 103.164C54.8775 103.164 54.5852 103.177 54.3137 103.113C53.6711 102.959 53.2627 102.567 53.2503 101.867C53.2379 101.145 53.611 100.696 54.2971 100.526C54.5686 100.459 54.8609 100.47 55.1449 100.47C60.0285 100.468 64.9121 100.468 69.7957 100.47C71.0767 100.47 71.7794 100.946 71.7856 101.809C71.7919 102.675 71.085 103.164 69.8123 103.166C67.358 103.166 64.9017 103.166 62.4475 103.166V103.164Z" fill="black"/>
<path d="M59.1671 132.342C57.7202 132.342 56.2734 132.352 54.8265 132.338C53.815 132.329 53.2553 131.846 53.2491 131.023C53.2408 130.192 53.786 129.666 54.7872 129.659C57.7327 129.639 60.6761 129.639 63.6216 129.659C64.5274 129.666 65.1327 130.24 65.141 130.988C65.1514 131.79 64.5523 132.325 63.5822 132.336C62.1105 132.35 60.6367 132.34 59.165 132.34L59.1671 132.342Z" fill="black"/>
<path d="M59.1539 117.751C57.6822 117.751 56.2084 117.77 54.7366 117.747C53.6836 117.73 53.0701 117.028 53.2774 116.118C53.439 115.402 53.9676 115.083 54.6413 115.079C57.6635 115.058 60.6857 115.052 63.7058 115.079C64.5702 115.087 65.134 115.668 65.1402 116.406C65.1464 117.173 64.564 117.73 63.6457 117.747C62.1491 117.774 60.6505 117.753 59.1518 117.755L59.1539 117.751Z" fill="black"/>
<path d="M59.1312 123.039C57.6864 123.039 56.2417 123.047 54.7948 123.037C53.8289 123.028 53.2796 122.568 53.2485 121.781C53.2174 120.97 53.7045 120.406 54.6684 120.392C57.6864 120.35 60.7065 120.352 63.7246 120.392C64.6221 120.404 65.186 121.059 65.1341 121.814C65.0844 122.55 64.5144 123.028 63.6189 123.037C62.1223 123.051 60.6257 123.041 59.1291 123.041L59.1312 123.039Z" fill="black"/>
<path d="M57.8134 137.627C56.7832 137.627 55.7509 137.638 54.7207 137.625C53.8169 137.613 53.2842 137.153 53.249 136.384C53.2137 135.596 53.6718 135.039 54.5797 134.999C56.7666 134.906 58.9596 134.889 61.1465 135.007C62.015 135.055 62.5394 135.671 62.4918 136.398C62.4441 137.134 61.872 137.613 60.9827 137.623C59.9256 137.638 58.8705 137.627 57.8134 137.627Z" fill="black"/>
</g>
<defs>
<clipPath id="clip0_2474_118">
<rect width="64.9773" height="79.4975" fill="white" transform="translate(32 87.2512)"/>
</clipPath>
</defs>
</svg>
