<svg width="33" height="33" viewBox="0 0 33 33" fill="none" xmlns="http://www.w3.org/2000/svg">
<path d="M22.4716 32.9434C23.7273 32.932 24.8492 32.6276 25.7248 31.6551C26.291 31.0266 26.9477 30.4716 27.4653 29.8081C28.6389 28.3035 28.645 26.7443 27.4486 25.2564C26.3298 23.8649 24.9115 22.8279 23.2256 22.2001C22.1425 21.797 21.0951 21.9291 20.1625 22.6093C19.6236 23.0025 19.125 23.4588 18.65 23.9287C18.3718 24.2035 18.0959 24.2817 17.7698 24.1177C17.2522 23.8573 16.708 23.622 16.2496 23.2773C13.6251 21.3006 11.3205 19.0019 9.42111 16.3153C9.14748 15.9289 8.96658 15.4727 8.77125 15.037C8.63595 14.7341 8.7036 14.476 8.9681 14.227C9.39983 13.8208 9.81255 13.3874 10.1857 12.9266C11.0013 11.92 11.183 10.7752 10.7284 9.57274C10.0892 7.8814 9.04335 6.45575 7.62809 5.33603C6.26755 4.25882 4.73371 4.19733 3.35342 5.24721C2.40484 5.96915 1.53759 6.82544 0.750151 7.7235C-0.00916587 8.58891 -0.0479289 9.71773 0.0265589 10.8215C0.125369 12.2882 0.54873 13.6758 1.10359 15.0271C2.4018 18.1896 4.33164 20.946 6.61035 23.4694C9.26606 26.411 12.257 28.9458 15.7609 30.8375C17.4597 31.7546 19.2307 32.4871 21.1529 32.7946C21.5892 32.8652 22.0315 32.8948 22.4716 32.9434Z" fill="white"/>
<path d="M14.2338 0.0382393C14.2338 0.740435 14.2338 1.40695 14.2338 2.11902C18.9516 1.79487 23.0514 3.15295 26.3927 6.48478C29.7386 9.82041 31.106 13.9114 30.7837 18.6969C31.4328 18.6969 32.0743 18.706 32.7151 18.6833C32.7797 18.681 32.8838 18.4942 32.8914 18.3872C33.089 15.693 32.7211 13.0687 31.6297 10.6016C28.863 4.34935 24.0449 0.818625 17.2384 0.0534198C16.2533 -0.0574124 15.2447 0.0382393 14.2338 0.0382393Z" fill="white"/>
<path d="M26.7335 18.5291C27.4381 18.5291 28.1146 18.5291 28.7941 18.5291C29.8392 10.3312 22.5698 3.08528 14.3443 4.10859C14.3443 4.78574 14.3443 5.46212 14.3443 6.17115C17.922 5.84396 21.0269 6.83084 23.5511 9.35343C26.0669 11.8684 27.0474 14.9634 26.7335 18.5291Z" fill="white"/>
<path d="M14.4684 8.14405C14.4684 8.84624 14.4684 9.52339 14.4684 10.2301C16.8923 9.91207 18.9931 10.5049 20.6988 12.2175C22.3937 13.9203 22.9843 16.0079 22.6544 18.4204C23.3598 18.4204 24.037 18.4204 24.7196 18.4204C25.7404 12.8393 20.6995 7.23309 14.4684 8.14405Z" fill="white"/>
</svg>
