<svg width="36" height="36" viewBox="0 0 36 36" fill="none" xmlns="http://www.w3.org/2000/svg">
<path d="M24.3134 35.6436C25.672 35.6312 26.8858 35.3019 27.8332 34.2497C28.4459 33.5697 29.1564 32.9692 29.7164 32.2514C30.9862 30.6235 30.9927 28.9364 29.6983 27.3266C28.4878 25.8211 26.9533 24.6991 25.1292 24.0198C23.9574 23.5837 22.8241 23.7266 21.8151 24.4625C21.232 24.888 20.6925 25.3816 20.1786 25.89C19.8776 26.1874 19.5791 26.272 19.2263 26.0946C18.6662 25.8128 18.0774 25.5582 17.5815 25.1853C14.7419 23.0465 12.2484 20.5595 10.1933 17.6527C9.89728 17.2347 9.70155 16.741 9.4902 16.2696C9.34382 15.9419 9.41701 15.6626 9.7032 15.3932C10.1703 14.9538 10.6169 14.4848 11.0206 13.9862C11.903 12.8971 12.0996 11.6585 11.6078 10.3575C10.9162 8.52757 9.78462 6.98508 8.25336 5.77359C6.78132 4.60809 5.12177 4.54157 3.62834 5.67749C2.60202 6.45859 1.6637 7.38507 0.811721 8.35673C-0.00982781 9.29307 -0.0517684 10.5144 0.0288247 11.7087C0.135732 13.2955 0.593791 14.7969 1.19412 16.2589C2.59873 19.6807 4.68673 22.663 7.1522 25.3931C10.0256 28.5759 13.2616 31.3183 17.0527 33.3651C18.8907 34.3573 20.8069 35.1499 22.8866 35.4826C23.3587 35.559 23.8373 35.591 24.3134 35.6436Z" fill="#3369E7"/>
<path d="M15.4016 0.041583C15.4016 0.80133 15.4016 1.52247 15.4016 2.2929C20.5061 1.94218 24.942 3.41157 28.5571 7.01647C32.1772 10.6255 33.6566 15.0517 33.308 20.2295C34.0103 20.2295 34.7043 20.2394 35.3976 20.2147C35.4675 20.2122 35.5802 20.0102 35.5884 19.8944C35.8022 16.9794 35.4042 14.14 34.2233 11.4706C31.2298 4.70602 26.0168 0.885928 18.6525 0.0580089C17.5867 -0.0619079 16.4954 0.0415829 15.4016 0.041583Z" fill="#535353"/>
<path d="M28.9246 20.0479C29.6869 20.0479 30.4188 20.0479 31.154 20.0479C32.2848 11.1781 24.4196 3.33834 15.5199 4.44552C15.5199 5.17816 15.5199 5.90998 15.5199 6.67712C19.3908 6.32312 22.7502 7.39087 25.4813 10.1202C28.2034 12.8413 29.2642 16.19 28.9246 20.0479Z" fill="#535353"/>
<path d="M15.6565 8.81159C15.6565 9.57133 15.6565 10.304 15.6565 11.0687C18.279 10.7245 20.5521 11.366 22.3975 13.2189C24.2314 15.0612 24.8703 17.3199 24.5134 19.9302C25.2766 19.9302 26.0093 19.9302 26.7478 19.9302C27.8523 13.8916 22.3983 7.82597 15.6565 8.81159Z" fill="#535353"/>
</svg>
