<svg width="23" height="26" viewBox="0 0 23 26" fill="none" xmlns="http://www.w3.org/2000/svg">
<g clip-path="url(#clip0_2474_232)">
<path d="M11.2965 6.99696C8.09021 6.99696 5.50401 9.54274 5.50401 12.6989C5.50401 15.8551 8.09021 18.4009 11.2965 18.4009C14.5028 18.4009 17.089 15.8551 17.089 12.6989C17.089 9.54274 14.5028 6.99696 11.2965 6.99696ZM11.2965 16.4059C9.2245 16.4059 7.53062 14.7435 7.53062 12.6989C7.53062 10.6544 9.21946 8.9919 11.2965 8.9919C13.3735 8.9919 15.0623 10.6544 15.0623 12.6989C15.0623 14.7435 13.3685 16.4059 11.2965 16.4059ZM18.677 6.76372C18.677 7.50314 18.072 8.09368 17.3259 8.09368C16.5747 8.09368 15.9748 7.49818 15.9748 6.76372C15.9748 6.02926 16.5798 5.43376 17.3259 5.43376C18.072 5.43376 18.677 6.02926 18.677 6.76372ZM22.5134 8.11353C22.4277 6.33198 22.0143 4.75389 20.6884 3.4537C19.3676 2.15352 17.7645 1.74659 15.9547 1.65726C14.0894 1.55305 8.49855 1.55305 6.63327 1.65726C4.82848 1.74162 3.22534 2.14855 1.89947 3.44874C0.573608 4.74893 0.165262 6.32701 0.0745179 8.10857C-0.0313497 9.94471 -0.0313497 15.4482 0.0745179 17.2843C0.16022 19.0659 0.573608 20.644 1.89947 21.9441C3.22534 23.2443 4.82343 23.6513 6.63327 23.7406C8.49855 23.8448 14.0894 23.8448 15.9547 23.7406C17.7645 23.6562 19.3676 23.2493 20.6884 21.9441C22.0093 20.644 22.4227 19.0659 22.5134 17.2843C22.6193 15.4482 22.6193 9.94967 22.5134 8.11353ZM20.1037 19.2544C19.7104 20.2271 18.9492 20.9764 17.9561 21.3685C16.4689 21.9491 12.9399 21.8151 11.2965 21.8151C9.65301 21.8151 6.11905 21.9441 4.63691 21.3685C3.64881 20.9814 2.88757 20.2321 2.48931 19.2544C1.89947 17.7905 2.03559 14.3167 2.03559 12.6989C2.03559 11.0811 1.90451 7.60239 2.48931 6.1434C2.88253 5.17074 3.64377 4.4214 4.63691 4.02936C6.12409 3.44874 9.65301 3.58273 11.2965 3.58273C12.9399 3.58273 16.4739 3.4537 17.9561 4.02936C18.9442 4.41644 19.7054 5.16578 20.1037 6.1434C20.6935 7.60735 20.5574 11.0811 20.5574 12.6989C20.5574 14.3167 20.6935 17.7955 20.1037 19.2544Z" fill="#012C58"/>
</g>
<defs>
<clipPath id="clip0_2474_232">
<rect width="22.5851" height="25.4082" fill="white"/>
</clipPath>
</defs>
</svg>
