<svg width="71" height="71" viewBox="0 0 71 71" fill="none" xmlns="http://www.w3.org/2000/svg">
<g clip-path="url(#clip0_2474_324)">
<path d="M0.000188938 10.2263C1.671 7.04531 5.85659 5.4152 9.11467 6.739C9.44883 6.87395 9.9008 7.57655 9.80655 7.74791C9.56878 8.18275 9.08039 8.70755 8.64341 8.75896C7.42458 8.8982 6.18004 8.81037 4.94621 8.81894C3.43392 8.82965 2.51711 9.60294 2.2365 11.066C2.12726 11.6358 2.17652 12.2377 2.17652 12.8246C2.17224 15.4529 2.17438 18.0812 2.17438 20.9109C4.88838 20.9109 7.39887 20.9109 9.91151 20.9109C10.9697 20.9109 12.0536 20.7717 13.0753 20.958C13.8015 21.0908 14.4484 21.667 15.1296 22.0462C14.442 22.421 13.7651 23.0958 13.0668 23.1172C9.50238 23.2265 5.93584 23.1686 2.26007 23.1686C2.22579 23.9548 2.17867 24.5288 2.17867 25.1008C2.17438 38.2637 2.17438 51.4267 2.17867 64.5897C2.17867 67.5843 2.94124 68.349 5.92728 68.3511C25.495 68.3533 45.0628 68.3533 64.6305 68.3511C67.5309 68.3511 68.3448 67.5607 68.3448 64.7289C68.3491 51.5081 68.347 38.2852 68.347 25.0643V23.2907C67.5137 23.2479 66.7811 23.1772 66.0507 23.1772C50.7135 23.1708 35.3764 23.1815 20.0392 23.1536C19.0324 23.1536 17.4044 23.6399 17.4537 21.9648C17.4987 20.4696 19.0517 20.9302 20.0221 20.9302C35.3592 20.9066 50.6964 20.913 66.0336 20.913C66.7276 20.913 67.4216 20.913 68.3063 20.913C68.3063 17.5307 68.4005 14.3133 68.2634 11.1067C68.2013 9.64578 67.1431 8.83608 65.618 8.82323C64.3842 8.81252 63.1375 8.91533 61.9229 8.76325C61.4474 8.70327 61.0426 8.08421 60.6056 7.71792C61.0426 7.3602 61.456 6.73472 61.9187 6.69402C63.3753 6.56763 64.8576 6.58049 66.3185 6.69187C68.6919 6.87181 70.4248 8.81252 70.5062 11.338C70.5662 13.2166 70.5233 15.0995 70.5233 16.9781C70.5233 32.9022 70.5233 48.8284 70.5233 64.7525C70.5233 68.786 68.7733 70.5275 64.7269 70.5296C45.217 70.5296 25.7092 70.4911 6.19932 70.5725C3.28183 70.5853 1.19546 69.7092 -0.00195312 67.0038V10.2263H0.000188938Z" fill="white"/>
<path d="M55.7178 4.95911e-05C57.8578 1.26172 58.5925 3.1446 58.4575 5.58441C58.3204 8.03707 58.449 10.5026 58.4211 12.9617C58.389 15.8385 56.7503 17.6699 54.3041 17.6249C51.905 17.5821 50.3991 15.8128 50.3862 12.9917C50.3734 10.4148 50.5041 7.82929 50.3477 5.2631C50.1999 2.81044 51.0267 1.06465 53.248 4.95911e-05H55.7157L55.7178 4.95911e-05ZM56.1655 8.79322C56.1655 7.32376 56.1505 5.85645 56.1698 4.38699C56.1848 3.15102 55.6836 2.23851 54.3962 2.22994C53.1324 2.22137 52.5519 3.08248 52.554 4.33558C52.5604 7.33233 52.554 10.3269 52.554 13.3237C52.554 14.5832 53.1709 15.4165 54.4305 15.3951C55.6043 15.3758 56.1677 14.5554 56.1634 13.3751C56.1591 11.8478 56.1634 10.3205 56.1634 8.79322H56.1655Z" fill="white"/>
<path d="M17.2808 1.34613e-05C19.4914 1.07319 20.3204 2.81897 20.179 5.26949C20.0227 7.95563 20.1662 10.6568 20.1341 13.3493C20.1041 15.8684 18.4932 17.5863 16.2077 17.6228C13.9435 17.6592 12.1806 15.9605 12.1163 13.4779C12.0349 10.3762 12.1163 7.27017 12.0906 4.16633C12.0756 2.15279 13.3566 1.0282 14.8132 -0.0021286H17.2808V1.34613e-05ZM17.9727 8.79532C17.9727 7.32587 17.9641 5.85855 17.9749 4.3891C17.9856 3.14885 17.4436 2.25775 16.1755 2.23204C14.8903 2.20634 14.3462 3.08458 14.3483 4.33341C14.3569 7.33015 14.3526 10.3269 14.3483 13.3215C14.3483 14.5767 14.9246 15.4357 16.2055 15.3886C17.4736 15.3436 17.9877 14.4332 17.9727 13.2015C17.9556 11.7321 17.9684 10.2648 17.9684 8.79532H17.9727Z" fill="white"/>
<path d="M63.1585 36.1538C63.1328 41.0591 59.1914 44.917 54.2583 44.8656C49.445 44.8163 45.5529 40.9049 45.5401 36.1024C45.5272 31.2806 49.58 27.2321 54.3975 27.2535C59.2707 27.275 63.1821 31.2485 63.1564 36.1538H63.1585ZM54.284 29.5134C50.6253 29.5541 47.7036 32.5444 47.7678 36.1817C47.8342 39.8382 50.8053 42.7192 54.4682 42.6807C58.0968 42.64 61.0379 39.624 60.9886 35.9953C60.9394 32.3474 57.9662 29.4727 54.2818 29.5134H54.284Z" fill="white"/>
<path d="M58.6424 35.704C58.6504 38.053 56.7681 39.9356 54.4023 39.9445C52.0802 39.9534 50.1427 38.0201 50.1436 35.696C50.1444 33.3862 52.0926 31.4466 54.4121 31.4457C56.7547 31.4457 58.6343 33.3363 58.6424 35.704ZM56.0201 33.6728C56.021 33.1975 55.8884 33.0568 55.3239 32.9233C55.0372 32.8556 54.7015 32.9037 54.6071 32.4747C54.5679 32.2984 54.1441 32.3563 54.1227 32.5548C54.088 32.8824 53.8529 32.9037 53.6339 32.9767C52.9608 33.2028 52.5725 33.6648 52.5084 34.3742C52.4515 35.0079 52.8165 35.5865 53.4647 35.8945C53.812 36.0601 54.1761 36.1909 54.527 36.3493C54.8146 36.4793 55.0327 36.6707 54.9864 37.0294C54.9374 37.4095 54.6534 37.527 54.3337 37.5946C54.1432 37.6356 53.9518 37.6186 53.7594 37.5821C53.4496 37.5243 53.1655 37.3988 52.886 37.2608C52.7204 37.1789 52.5752 37.1549 52.504 37.3854C52.3713 37.8171 52.5405 38.1928 52.9697 38.3539C53.1629 38.4269 53.3694 38.4616 53.5698 38.5132C53.7995 38.572 54.0657 38.5274 54.1423 38.8835C54.1833 39.0749 54.6071 39.0499 54.6285 38.855C54.6659 38.507 54.9125 38.4865 55.1467 38.4064C55.8768 38.1572 56.257 37.6845 56.2953 36.9884C56.3398 36.1838 56.0941 35.7601 55.3443 35.4032C54.9837 35.2314 54.6018 35.1041 54.2411 34.9314C53.9625 34.7979 53.7238 34.6003 53.8093 34.2407C53.8912 33.8989 54.1717 33.792 54.4842 33.7609C54.8635 33.7226 55.217 33.8312 55.5625 33.9763C55.9587 34.1428 56.0175 34.1009 56.0193 33.6701L56.0201 33.6728Z" fill="white"/>
<path d="M35.2735 49.8438C36.5073 49.8438 37.7433 49.8737 38.975 49.8352C40.2174 49.7966 40.8257 50.3 40.8086 51.596C40.7743 54.1236 40.7786 56.6512 40.8086 59.1767C40.8236 60.477 40.1874 60.9418 38.9535 60.9246C36.4859 60.8904 34.0161 60.8904 31.5484 60.9246C30.3017 60.9418 29.702 60.4427 29.7191 59.1553C29.7512 56.6277 29.7534 54.1 29.7191 51.5745C29.702 50.2636 30.3424 49.7988 31.572 49.8373C32.8058 49.8759 34.0396 49.8459 35.2735 49.8459V49.8438ZM32.0797 58.547H38.4202V52.2343H32.0797V58.547Z" fill="white"/>
<path d="M35.2136 41.6053C33.9219 41.6053 32.6303 41.5775 31.3386 41.6139C30.2076 41.6439 29.7299 41.0869 29.7299 40.0138C29.7299 37.3705 29.7256 34.7293 29.7321 32.086C29.7342 31.0835 30.214 30.5951 31.2551 30.6058C33.9562 30.6315 36.6595 30.5459 39.3542 30.6787C39.8512 30.7022 40.6973 31.5226 40.7208 32.0089C40.8558 34.7036 40.7958 37.4069 40.7851 40.108C40.7808 41.224 40.1639 41.6482 39.0843 41.6139C37.7948 41.5732 36.501 41.6032 35.2093 41.6032L35.2136 41.6053ZM38.4096 39.3326V32.9214H32.1226V39.3326H38.4096Z" fill="white"/>
<path d="M21.6292 55.4002C21.6292 56.634 21.5906 57.8678 21.6399 59.0995C21.6913 60.3569 21.1836 60.9396 19.8941 60.9224C17.3686 60.886 14.8431 60.9031 12.3176 60.916C11.1609 60.9224 10.5869 60.4362 10.6018 59.2238C10.634 56.6404 10.6276 54.055 10.604 51.4716C10.5933 50.3621 11.1009 49.8437 12.1913 49.8458C14.7746 49.8458 17.3601 49.8608 19.9434 49.8372C21.1172 49.8265 21.6763 50.3171 21.6356 51.5252C21.5928 52.8169 21.627 54.1085 21.627 55.4002H21.6292ZM12.9324 58.534H19.2943V52.1828H12.9324V58.534Z" fill="white"/>
<path d="M59.9094 55.3273C59.9094 56.679 60.0572 58.0542 59.8408 59.3694C59.7444 59.9456 58.9262 60.811 58.3971 60.841C55.7045 60.9888 52.9948 60.9781 50.3001 60.841C49.8117 60.8153 48.987 59.9713 48.9634 59.4722C48.8285 56.7775 48.9077 54.0721 48.8906 51.3709C48.8842 50.3428 49.364 49.8501 50.3793 49.8501C53.0226 49.8501 55.666 49.8501 58.3093 49.8458C59.3889 49.8458 59.9415 50.3342 59.9201 51.4523C59.8965 52.744 59.9137 54.0357 59.9137 55.3295L59.9094 55.3273ZM57.5553 58.5426V52.2428H51.1933V58.5426H57.5553Z" fill="white"/>
<path d="M16.0727 41.6032C14.781 41.6032 13.4894 41.586 12.1977 41.6096C11.0774 41.631 10.6019 41.0848 10.6083 39.9966C10.6211 37.4133 10.634 34.83 10.6019 32.2488C10.5869 31.0342 11.1395 30.5823 12.3155 30.5994C14.8967 30.638 17.48 30.6294 20.0633 30.6037C21.0637 30.593 21.6271 30.9571 21.6249 32.0196C21.6185 34.7207 21.6185 37.4197 21.6249 40.1209C21.6271 41.1362 21.1579 41.6289 20.1212 41.6117C18.7717 41.5882 17.4222 41.6053 16.0705 41.6053L16.0727 41.6032ZM12.9817 32.9085V39.324H19.2815V32.795C17.3194 32.795 15.5008 32.7907 13.6843 32.7993C13.4615 32.7993 13.2387 32.8678 12.9817 32.9085Z" fill="white"/>
<path d="M35.4493 6.6426C39.0822 6.6426 42.7173 6.59762 46.3481 6.68758C46.9371 6.70258 47.946 7.24666 48.006 7.65794C48.1731 8.78895 47.1878 8.82108 46.3224 8.82108C38.9387 8.81465 31.555 8.84036 24.1713 8.77395C23.5887 8.76967 22.5797 8.20631 22.5133 7.78218C22.327 6.61261 23.3552 6.6426 24.197 6.6426C27.9477 6.6426 31.6985 6.6426 35.4493 6.6426Z" fill="white"/>
</g>
<defs>
<clipPath id="clip0_2474_324">
<rect width="70.5403" height="70.5703" fill="white"/>
</clipPath>
</defs>
</svg>
