<svg width="70" height="79" viewBox="0 0 70 79" fill="none" xmlns="http://www.w3.org/2000/svg">
<g clip-path="url(#clip0_2474_285)">
<path d="M19.6876 78.6316C17.8863 78.2177 16.1322 77.6849 14.583 76.6336C10.7078 74.0024 8.6299 70.3445 8.61965 65.6599C8.58072 49.0692 8.60531 32.4765 8.60326 15.8838C8.60326 15.0791 8.19683 14.6761 7.38396 14.6747C5.84907 14.6747 4.31624 14.687 2.78136 14.6706C0.891953 14.6501 0.00872922 13.7567 0.00463073 11.8898C0.000532242 9.79344 -0.00561549 7.69706 0.00463073 5.60068C0.0251232 2.45714 2.41044 0.0513299 5.53554 0.0431329C9.95781 0.0308375 14.3801 0.0390344 18.8044 0.0390344C18.9314 0.0390344 19.0606 0.034936 19.1876 0.0451822C19.9335 0.0964133 20.4294 0.577986 20.4315 1.24194C20.4315 1.90795 19.9376 2.41821 19.1917 2.43665C17.9908 2.46329 16.7879 2.4469 15.5871 2.44895C14.0276 2.44895 12.4681 2.45919 10.9087 2.4428C10.3943 2.43665 10.173 2.52272 10.4783 3.08011C11.0234 4.07195 11.1177 5.16624 11.1177 6.27693C11.1177 26.0132 11.1136 45.7495 11.1177 65.4857C11.1177 69.8916 13.13 73.0966 16.9867 75.1602C18.4109 75.9225 19.9766 76.2074 21.5709 76.2586C22.7164 76.2955 23.8742 76.3959 25.0116 76.1787C26.0505 75.9799 26.6653 75.2606 26.694 74.2012C26.7247 73.0761 26.7022 71.9511 26.7063 70.8261C26.7145 68.9326 27.7473 67.8772 29.6469 67.8752C36.4976 67.867 43.3502 67.8711 50.2009 67.8711C52.5022 67.8711 54.8035 67.8485 57.1027 67.8834C57.8077 67.8936 58.0228 67.662 58.0208 66.9612C58.0003 59.6249 58.0064 52.2866 58.0126 44.9503C58.0126 44.5691 58.0228 44.1797 58.1027 43.8109C58.2339 43.2146 58.6601 42.8846 59.2606 42.8826C59.8979 42.8826 60.3221 43.2453 60.4635 43.8642C60.5352 44.1818 60.5209 44.524 60.5229 44.856C60.525 52.1165 60.525 59.3769 60.525 66.6374C60.525 67.4598 60.9478 67.8711 61.7934 67.8711C63.2771 67.8711 64.7587 67.8608 66.2423 67.8752C68.1317 67.8936 69.1236 68.8977 69.1318 70.7769C69.1359 71.6724 69.1318 72.5659 69.1318 73.4614C69.1318 76.3098 68.3367 77.5107 65.7075 78.6316H19.6876ZM46.8503 76.2771C52.2911 76.2771 57.7339 76.2771 63.1746 76.2771C63.6091 76.2771 64.0456 76.2955 64.478 76.2668C65.8796 76.1705 66.603 75.4082 66.6276 74.0024C66.644 73.1089 66.5928 72.2114 66.644 71.3199C66.6891 70.5638 66.3858 70.3732 65.6665 70.3732C53.8383 70.3916 42.01 70.3937 30.1838 70.3691C29.3846 70.3691 29.192 70.6355 29.2002 71.3855C29.2146 72.7073 29.3642 74.0454 29.0219 75.3528C28.7781 76.2791 28.7719 76.2771 29.7597 76.2771C35.4566 76.2771 41.1535 76.2771 46.8503 76.2771ZM2.51495 8.33642H2.50471C2.50471 9.38359 2.51291 10.4287 2.50061 11.4759C2.49446 11.9472 2.66045 12.1767 3.16866 12.1726C4.77732 12.1562 6.38393 12.1562 7.99258 12.1726C8.46801 12.1767 8.60941 11.9595 8.60736 11.5189C8.59506 9.47785 8.6299 7.43476 8.58891 5.39371C8.55613 3.7871 7.09911 2.4346 5.52324 2.46329C3.90229 2.49198 2.58668 3.73587 2.52315 5.35068C2.48422 6.34456 2.517 7.34049 2.517 8.33642H2.51495Z" fill="white"/>
<path d="M35.2796 21.4761C34.796 21.4761 34.5194 21.4761 34.2448 21.4761C28.5438 21.4761 22.8428 21.4761 17.1418 21.4761C16.861 21.4761 16.5762 21.4904 16.2995 21.4577C15.6807 21.388 15.1889 20.8552 15.2257 20.265C15.2647 19.6359 15.6028 19.2096 16.2401 19.0928C16.5127 19.0437 16.8016 19.0641 17.0824 19.0641C23.6789 19.0641 30.2733 19.0559 36.8699 19.0744C37.4805 19.0744 37.9273 18.9084 38.3515 18.4637C39.374 17.3899 40.4314 16.3509 41.4909 15.312C42.6221 14.2033 43.8742 14.1992 45.0033 15.2997C46.0648 16.3366 47.1202 17.3776 48.1448 18.4494C48.5649 18.89 49.0014 19.0928 49.6182 19.0744C51.024 19.0334 52.4298 19.0559 53.8355 19.0662C54.7352 19.0723 55.2946 19.5478 55.3028 20.2793C55.311 20.9966 54.7413 21.4659 53.8314 21.4741C53.022 21.4823 52.2105 21.4741 51.1592 21.4741C52.108 22.4106 52.899 23.1913 53.686 23.9741C54.2474 24.5336 54.8151 25.0869 55.3643 25.6566C56.4319 26.7611 56.4483 28.0091 55.3684 29.1116C53.7577 30.7551 52.1183 32.3699 50.4932 33.999C50.3149 34.1773 50.1428 34.3638 49.9092 34.6077C50.5342 34.8023 51.108 34.6937 51.6695 34.7101C52.3847 34.7306 53.1019 34.706 53.8171 34.7183C54.7208 34.7347 55.2803 35.2019 55.3028 35.9294C55.3253 36.6467 54.772 37.1918 53.8745 37.2102C52.1634 37.245 50.4461 37.286 48.737 37.2041C47.6755 37.1528 46.9419 37.5032 46.198 38.2553C40.5892 43.9256 34.9354 49.5528 29.2938 55.1923C27.8163 56.6698 26.722 56.6657 25.2383 55.1821C21.9473 51.893 18.6562 48.604 15.3692 45.3109C14.0105 43.9502 14.0146 42.7862 15.3835 41.4111C16.609 40.1796 17.8426 38.9521 19.0681 37.7205C19.1726 37.616 19.3119 37.5299 19.3099 37.2245C18.7689 37.2245 18.2217 37.2266 17.6725 37.2245C17.2893 37.2245 16.9041 37.2409 16.5229 37.202C15.736 37.1221 15.2134 36.6057 15.2175 35.9499C15.2196 35.2491 15.7708 34.7327 16.6049 34.7204C18.0865 34.6978 19.5722 34.6794 21.0517 34.7265C21.7731 34.7491 22.2874 34.5318 22.7997 34.0134C26.7015 30.0706 30.634 26.1566 34.5563 22.2343C34.753 22.0376 34.9395 21.8327 35.2796 21.472V21.4761ZM27.2814 53.6677C27.4556 53.516 27.6155 53.3931 27.7569 53.2517C36.1977 44.8129 44.6344 36.37 53.0835 27.9415C53.5118 27.5152 53.5138 27.2652 53.0835 26.839C49.9584 23.7467 46.8497 20.64 43.7594 17.5129C43.3455 17.0928 43.1262 17.1297 42.7286 17.5293C39.8351 20.4556 36.919 23.3573 34.0091 26.2672C28.4966 31.7797 22.9862 37.2922 17.4717 42.8005C17.1397 43.1325 16.8713 43.3661 17.3529 43.8416C20.5333 46.9851 23.6871 50.1573 26.8511 53.3173C26.9741 53.4402 27.1195 53.5386 27.2794 53.6677H27.2814Z" fill="white"/>
<path d="M58.0085 22.5683C58.0085 17.687 57.8978 12.8016 58.0474 7.92444C58.1458 4.6518 56.0535 2.40173 52.5596 2.42837C43.4363 2.49394 34.311 2.45091 25.1858 2.45091C24.905 2.45091 24.6202 2.4673 24.3435 2.43451C23.6652 2.3505 23.2841 1.9386 23.2308 1.27054C23.1816 0.65577 23.698 0.129114 24.3702 0.0573907C24.5976 0.0327998 24.8292 0.043046 25.0587 0.043046C34.3889 0.043046 43.7171 0.120917 53.0452 0.00411036C56.6785 -0.040973 60.5475 2.76034 60.5311 7.51664C60.4963 17.6891 60.5209 27.8615 60.5209 38.034C60.5209 39.3107 60.0905 39.9357 59.2401 39.9193C58.4224 39.9029 58.0085 39.2861 58.0085 38.0606C58.0085 32.8986 58.0085 27.7345 58.0085 22.5724V22.5683Z" fill="white"/>
<path d="M35.264 9.94298C30.8192 9.94298 26.3744 9.94298 21.9296 9.94298C20.6795 9.94298 20.0074 9.48805 20.0217 8.6663C20.0361 7.86915 20.6918 7.43061 21.8906 7.43061C30.8048 7.43061 39.7211 7.43061 48.6353 7.43061C49.8526 7.43061 50.4858 7.8548 50.5022 8.6663C50.5186 9.50034 49.8649 9.94298 48.5984 9.94298C44.1536 9.94298 39.7088 9.94298 35.264 9.94298Z" fill="white"/>
<path d="M43.8275 63.3319C40.6573 63.3319 37.4892 63.3319 34.319 63.3319C34.0383 63.3319 33.7514 63.3463 33.4788 63.2951C32.8558 63.1803 32.4501 62.793 32.4214 62.1557C32.3948 61.5286 32.7288 61.0778 33.3518 60.9138C33.6427 60.838 33.9563 60.8196 34.2596 60.8175C40.6491 60.8114 47.0407 60.8114 53.4303 60.8155C54.6496 60.8155 55.2828 61.2417 55.2992 62.0532C55.3176 62.9037 54.6905 63.3299 53.4118 63.3299C50.217 63.3299 47.0223 63.3299 43.8254 63.3299L43.8275 63.3319Z" fill="white"/>
<path d="M22.1383 63.3319C20.4005 63.3319 18.6628 63.3319 16.923 63.3319C16.6176 63.3319 16.3103 63.3442 16.0172 63.2213C15.5192 63.0123 15.2385 62.6332 15.2242 62.1024C15.2098 61.5635 15.4926 61.1843 15.9865 60.9692C16.3471 60.8114 16.7324 60.8175 17.1177 60.8175C20.4661 60.8175 23.8146 60.8175 27.163 60.8175C28.3516 60.8175 29.0197 61.2725 29.0258 62.0696C29.034 62.8975 28.409 63.3299 27.1979 63.3319C25.5114 63.334 23.8228 63.3319 22.1363 63.3319H22.1383Z" fill="white"/>
<path d="M48.9076 47.6716C47.3256 47.6716 45.7436 47.6818 44.1616 47.6675C43.3009 47.6593 42.7927 47.2863 42.6718 46.6326C42.5181 45.8088 43.1042 45.1756 44.096 45.1653C45.9076 45.1449 47.7191 45.1572 49.5306 45.1572C50.9344 45.1572 52.3381 45.149 53.7418 45.1613C54.7009 45.1694 55.2767 45.6326 55.3013 46.3785C55.3259 47.149 54.7337 47.6572 53.7316 47.6695C52.125 47.688 50.5163 47.6736 48.9097 47.6736L48.9076 47.6716Z" fill="white"/>
<path d="M41.9628 52.891C40.7128 52.891 39.4648 52.9013 38.2148 52.889C37.1922 52.8787 36.6471 52.4156 36.6594 51.6082C36.6717 50.8336 37.2045 50.3848 38.1881 50.3807C40.7374 50.3684 43.2887 50.3684 45.8379 50.3807C46.8175 50.3848 47.3482 50.8418 47.3544 51.6205C47.3605 52.4053 46.8318 52.8746 45.8646 52.8869C44.5654 52.9054 43.2641 52.891 41.9628 52.891Z" fill="white"/>
<path d="M33.6433 16.2526C32.5982 16.2526 31.5531 16.2628 30.51 16.2505C29.6309 16.2403 29.1493 15.7997 29.1514 15.0476C29.1534 14.2997 29.635 13.857 30.5182 13.8509C32.6084 13.8386 34.6966 13.8386 36.7869 13.8509C37.582 13.857 38.1066 14.3386 38.1271 15.0169C38.1476 15.7259 37.6066 16.2362 36.7787 16.2485C35.7335 16.2628 34.6884 16.2526 33.6454 16.2526H33.6433Z" fill="white"/>
<path d="M19.6894 16.2526C18.6689 16.2526 17.6504 16.2608 16.6299 16.2505C15.7815 16.2424 15.2343 15.7751 15.22 15.0743C15.2057 14.3755 15.759 13.857 16.5868 13.8509C18.6771 13.8386 20.7673 13.8386 22.8575 13.8509C23.6567 13.857 24.1629 14.3386 24.1752 15.0333C24.1875 15.7731 23.6895 16.2362 22.8247 16.2464C21.7796 16.2608 20.7345 16.2505 19.6894 16.2505V16.2526Z" fill="white"/>
<path d="M52.3111 52.8829C51.8008 52.8829 51.2865 52.9115 50.7782 52.8767C50.0098 52.8214 49.4647 52.2763 49.4688 51.6287C49.4729 50.9791 50.0221 50.4238 50.7905 50.3951C51.8623 50.3561 52.9381 50.3561 54.0099 50.3951C54.7886 50.4217 55.305 50.9648 55.3009 51.641C55.2968 52.3193 54.7804 52.8132 53.9976 52.8849C53.9464 52.889 53.8951 52.8911 53.8439 52.8911C53.3336 52.8911 52.8213 52.8911 52.3111 52.8911V52.8829Z" fill="white"/>
<path d="M52.4159 58.0981C51.8545 58.0981 51.2889 58.133 50.7315 58.0899C49.9876 58.0346 49.4876 57.5223 49.4691 56.8829C49.4527 56.262 49.961 55.6636 50.6823 55.6308C51.8299 55.5796 52.9815 55.5776 54.1291 55.6411C54.8709 55.6821 55.3341 56.2641 55.3013 56.9096C55.2705 57.5592 54.7685 58.0285 54.0267 58.1022C53.9754 58.1063 53.9242 58.1084 53.873 58.1084C53.3873 58.1084 52.9016 58.1084 52.4159 58.1084V58.0981Z" fill="white"/>
<path d="M17.7064 29.5071C18.1142 29.5071 18.524 29.4846 18.9298 29.5133C19.6306 29.5625 20.1143 30.0235 20.1655 30.6486C20.2167 31.2613 19.7925 31.8146 19.0958 31.9232C18.1613 32.0687 17.2105 32.0707 16.276 31.9191C15.6182 31.8125 15.2371 31.3781 15.2248 30.7018C15.2145 30.0809 15.7207 29.5768 16.4051 29.5194C16.8355 29.4825 17.272 29.5133 17.7064 29.5133V29.5092V29.5071Z" fill="white"/>
<path d="M17.7469 24.2897C18.1547 24.2897 18.5645 24.2631 18.9703 24.2958C19.6609 24.3491 20.1752 24.843 20.1609 25.4598C20.1465 26.1238 19.7961 26.5849 19.1281 26.6894C18.169 26.841 17.1956 26.8492 16.2366 26.6832C15.5706 26.5685 15.2038 26.0951 15.2386 25.4332C15.2734 24.7651 15.7038 24.3655 16.3718 24.302C16.8268 24.259 17.2878 24.2938 17.7469 24.2938V24.2897Z" fill="white"/>
<path d="M37.0693 27.7919C38.346 27.8083 39.1759 28.2858 39.7087 29.2243C39.9157 29.5871 40.1432 29.7633 40.5776 29.835C42.9916 30.2428 44.0244 33.1364 42.4219 34.9909C41.8563 35.6467 41.2231 36.2451 40.5961 36.8434C39.9977 37.4131 39.3399 37.4521 38.7558 36.8824C37.057 35.2266 35.3848 33.5401 33.7168 31.8535C33.2762 31.4068 33.1389 30.833 33.5487 30.3268C34.2065 29.5174 34.9217 28.7469 35.7906 28.1505C36.223 27.8534 36.7312 27.7673 37.0673 27.7919H37.0693ZM39.5981 34.1876C39.9587 34.1671 40.6801 33.2716 40.6637 32.9355C40.6432 32.5072 40.4075 32.2777 39.9833 32.2798C39.6309 32.2798 38.7354 33.1056 38.8276 33.3679C38.9649 33.7593 39.2886 34.0114 39.596 34.1876H39.5981Z" fill="white"/>
<path d="M31.4151 44.4031C31.452 45.3908 31.116 46.229 30.4745 46.938C29.9971 47.4688 29.4929 47.979 28.9704 48.4647C28.3433 49.0467 27.749 49.0672 27.1425 48.4749C25.499 46.8704 23.8719 45.2474 22.2612 43.608C21.6833 43.0199 21.712 42.401 22.2981 41.7739C22.7858 41.2514 23.2981 40.7493 23.8329 40.278C25.126 39.1386 26.5974 38.9828 28.1056 39.7206C30.0421 40.6673 31.2553 42.1817 31.4151 44.401V44.4031ZM26.2838 41.8251C26.2203 41.8333 26.0912 41.8354 25.9703 41.8641C25.5482 41.9665 25.2162 42.2411 25.0502 42.61C24.874 42.9994 25.3084 43.1715 25.5195 43.3908C26.206 44.106 26.915 44.8027 27.6261 45.4953C27.7921 45.6572 27.9458 45.9585 28.2511 45.6962C28.6261 45.3724 28.9397 44.9933 28.9663 44.4789C29.0278 43.3149 27.5318 41.8129 26.2838 41.8231V41.8251Z" fill="white"/>
<path d="M32.7716 34.1322C32.747 34.8495 32.0728 35.1979 31.6322 35.7061C31.4355 35.9315 31.1424 36.1077 31.4662 36.4663C31.7777 36.8086 32.0482 36.9336 32.4027 36.5237C32.6363 36.2553 32.8966 36.0012 33.1794 35.786C33.7224 35.3741 34.2778 35.4069 34.7757 35.8741C35.2655 36.3331 35.2921 36.9766 34.8434 37.5278C34.6179 37.8045 34.3659 38.0647 34.0933 38.2943C33.7532 38.5812 33.79 38.7984 34.0892 39.1037C34.4069 39.4275 34.6241 39.3845 34.9048 39.0771C35.1958 38.7574 35.5032 38.4418 35.8393 38.1734C36.3557 37.7615 37.1016 37.8168 37.5053 38.2881C37.9459 38.8025 37.9848 39.3865 37.5279 39.8865C36.8024 40.6755 36.0401 41.4358 35.2512 42.1612C34.747 42.6264 34.1466 42.5915 33.663 42.1161C31.9498 40.4337 30.253 38.7348 28.5686 37.0217C28.0911 36.536 28.0645 35.9171 28.503 35.4212C29.212 34.62 29.9866 33.872 30.7695 33.1404C31.1568 32.7797 31.6588 32.7633 32.1343 32.9949C32.5646 33.2039 32.7572 33.579 32.7716 34.1302V34.1322Z" fill="white"/>
<path d="M47.3687 29.4805C47.3482 30.1444 47.1146 30.5194 46.6473 30.7162C46.1186 30.9375 45.6473 30.8043 45.2477 30.4067C44.0735 29.2366 42.887 28.0767 41.7332 26.8861C41.3111 26.4496 41.0242 26.1853 40.473 26.7796C39.9729 27.3206 39.2229 27.2284 38.77 26.7345C38.313 26.2345 38.3089 25.5623 38.8356 25.0131C39.7352 24.0746 40.6533 23.1504 41.5959 22.2548C42.1595 21.7179 42.8029 21.7364 43.3091 22.218C43.7825 22.6688 43.846 23.4188 43.3337 23.9332C42.8583 24.4086 42.9669 24.6914 43.3972 25.1033C44.5387 26.1976 45.6432 27.3308 46.76 28.4497C47.09 28.7796 47.3953 29.1219 47.3666 29.4825L47.3687 29.4805Z" fill="white"/>
</g>
<defs>
<clipPath id="clip0_2474_285">
<rect width="69.1292" height="78.6315" fill="white"/>
</clipPath>
</defs>
</svg>
