<svg width="72" height="72" viewBox="0 0 72 72" fill="none" xmlns="http://www.w3.org/2000/svg">
<g clip-path="url(#clip0_2474_308)">
<path d="M71.39 63.8159C70.88 65.5321 69.9381 66.9096 68.3298 67.7826C67.3209 68.3299 66.2096 68.436 65.1076 68.5718C59.1045 69.3146 53.1013 70.0684 47.0926 70.7739C45.2292 70.9917 43.3752 71.3975 41.4952 71.3677C34.5017 71.2579 28.3329 68.8976 22.9757 64.4171C19.0238 61.1112 15.0924 57.7792 11.1685 54.4398C10.6436 53.993 10.1168 53.7845 9.41504 53.7957C6.90767 53.8348 4.40031 53.8143 1.89294 53.8087C0.504302 53.8069 -0.000149253 53.3024 -0.000149253 51.9249C-0.000149253 46.5398 -0.0020107 41.1528 -0.000149253 35.7676C-0.000149253 34.4385 0.480104 33.9508 1.79428 33.9508C8.15484 33.949 14.5154 33.9192 20.876 33.9601C26.7954 33.9992 31.9516 36.0822 36.2962 40.0787C40.3281 43.7867 44.2706 47.5915 48.282 51.32C49.7619 52.6956 50.6349 54.2927 50.5139 56.3459C50.4748 57.0048 50.888 56.9713 51.3255 56.9639C54.8753 56.9062 58.4269 56.8354 61.9767 56.8075C63.3895 56.7963 64.8005 56.5544 66.217 56.7554C68.8342 57.1277 70.4965 58.6075 71.2746 61.113C71.3081 61.2229 71.3491 61.3327 71.3881 61.4407V63.8103L71.39 63.8159ZM13.0653 36.9254C9.95486 36.9254 6.84252 36.9366 3.73205 36.9161C3.12522 36.9124 2.8702 37.0557 2.87392 37.7314C2.90371 41.8415 2.89998 45.9497 2.87578 50.0598C2.87206 50.6834 3.0824 50.8546 3.67993 50.8472C5.95461 50.8192 8.23116 50.8453 10.5058 50.8304C11.1164 50.8267 11.6357 50.9924 12.1048 51.3888C15.7346 54.4658 19.3905 57.5111 23.0017 60.6123C25.6543 62.8907 28.385 65.0314 31.663 66.3605C35.7303 68.0097 39.8999 68.8101 44.3134 68.1567C47.8669 67.63 51.4446 67.2781 55.0111 66.8388C58.6689 66.3884 62.3285 65.9435 65.9825 65.4595C67.5424 65.2529 68.6109 63.9368 68.5141 62.4644C68.4061 60.8394 67.1794 59.6853 65.5246 59.6797C64.2011 59.6741 62.8795 59.73 61.5578 59.7654C57.6134 59.8659 53.6672 59.9105 49.7228 59.9534C49.1867 59.9589 48.7679 60.0948 48.3286 60.4243C46.4057 61.8669 44.2929 62.1052 42.1821 60.9623C38.6099 59.0282 35.0974 56.9881 31.5644 54.9814C30.6597 54.4677 30.3842 53.6617 30.7975 52.8854C31.2107 52.1074 32.0856 51.9194 33.0275 52.4313C33.8223 52.8631 34.6041 53.3229 35.3915 53.7678C38.0385 55.2644 40.6799 56.7703 43.3343 58.2539C44.5107 58.9109 45.7635 58.7899 46.6365 57.9933C47.947 56.7982 47.8744 54.9889 46.4597 53.6598C42.5879 50.017 38.7049 46.3871 34.8461 42.7294C30.7267 38.8241 25.8739 36.8193 20.1686 36.9198C17.8009 36.9608 15.4331 36.9273 13.0635 36.9273L13.0653 36.9254Z" fill="white"/>
<path d="M21.6471 -3.8147e-05C24.1452 1.37929 26.6432 2.76235 29.145 4.13796C30.7719 5.03331 32.41 5.91005 34.0332 6.81099C34.6307 7.14419 34.9565 7.65609 34.8261 8.36902C34.6977 9.07079 34.2491 9.45797 33.5585 9.57896C33.1155 9.65714 32.7488 9.4468 32.3783 9.24576C29.0761 7.4476 25.7721 5.64945 22.4662 3.85502C21.6639 3.41944 21.6527 3.4213 21.219 4.21427C18.5962 9.02425 15.9883 13.8435 13.3432 18.6423C13.0156 19.238 13.36 19.3553 13.7378 19.56C17.8777 21.8105 22.0175 24.0647 26.1574 26.3171C32.7655 29.9115 39.3774 33.4967 45.9743 37.1116C46.5551 37.4299 46.771 37.3201 47.0652 36.7728C49.6302 32.0094 52.2251 27.2627 54.8069 22.5104C55.2369 21.7212 55.235 21.7081 54.4476 21.2763C50.9835 19.3851 47.5156 17.4994 44.0515 15.61C42.862 14.9623 42.7001 13.5848 43.735 12.9333C44.3493 12.548 44.9301 12.7211 45.509 13.0394C47.0558 13.8882 48.6083 14.7277 50.157 15.571C52.6234 16.9149 55.0898 18.2607 57.5563 19.6047C58.8072 20.286 59.0026 20.971 58.3195 22.2238C55.2537 27.8509 52.1897 33.4781 49.1332 39.1108C47.9642 41.2663 47.6292 41.3613 45.4643 40.1755C41.6577 38.0889 37.851 36.0003 34.022 33.9527C32.1047 32.9271 29.9641 32.5008 27.9127 31.8418C20.0016 29.3047 12.0718 26.8178 4.15325 24.3067C2.96379 23.9288 2.61942 23.2513 2.99357 22.0693C5.01696 15.6752 7.04035 9.28113 9.06747 2.88706C9.50491 1.50959 10.1043 1.19687 11.478 1.62687C13.4716 2.25045 15.4671 2.86845 17.4496 3.52368C17.9689 3.69493 18.25 3.60186 18.4827 3.09555C18.7917 2.4217 19.1919 1.79067 19.5288 1.128C19.7671 0.658914 20.0835 0.275456 20.5321 0.0018233H21.6471V-3.8147e-05ZM18.9033 25.8852L18.9573 25.7661C18.7451 25.6432 18.5348 25.5148 18.3207 25.3975C15.7519 23.9977 13.1813 22.6035 10.6162 21.2C9.57192 20.6285 9.36344 19.9007 9.91256 18.8229C10.0503 18.5549 10.1992 18.2905 10.3426 18.0262C12.3511 14.3368 14.3558 10.6437 16.3774 6.95991C16.6212 6.51502 16.5654 6.31212 16.0702 6.16321C14.8044 5.78161 13.5387 5.39257 12.2934 4.94955C11.7014 4.7392 11.4985 4.91046 11.3217 5.47633C9.68919 10.7033 8.03437 15.9246 6.36465 21.1404C6.18967 21.6895 6.28647 21.9259 6.8449 22.0972C9.57378 22.9348 12.2915 23.806 15.0129 24.666C16.3104 25.0755 17.6078 25.4813 18.9033 25.8889V25.8852Z" fill="white"/>
<path d="M71.39 50.1603C71.0922 51.5043 70.1857 52.3196 68.9962 52.8687C66.4665 54.0377 63.7805 54.2909 61.0423 54.1699C59.6983 54.1103 58.3674 53.9093 57.0662 53.5407C56.1225 53.2745 55.2178 52.919 54.4081 52.3568C53.4271 51.6774 52.9171 50.7895 52.932 49.5423C52.9748 45.9683 52.9636 42.3925 52.9375 38.8185C52.9301 37.7445 53.3545 36.9422 54.1773 36.3093C55.5473 35.2557 57.1612 34.8239 58.8179 34.5595C61.6193 34.1128 64.4078 34.204 67.1646 34.9281C67.8403 35.1049 68.4862 35.36 69.1116 35.669C70.249 36.2292 71.0885 37.039 71.3919 38.3141V50.1584L71.39 50.1603ZM62.0847 45.6705C63.6353 45.5793 65.1635 45.4955 66.6434 45.0451C68.3559 44.5239 68.4452 44.3805 68.4322 42.6326C68.4285 42.0593 68.261 41.9588 67.736 42.1375C66.0738 42.7015 64.3519 42.9193 62.6022 42.9547C60.4987 42.9956 58.4344 42.7666 56.424 42.1189C56.2416 42.0593 56.0294 41.9011 55.8693 42.1654C55.4989 42.7741 55.9512 44.334 56.6009 44.6374C58.345 45.4564 60.2288 45.5421 62.0828 45.6724L62.0847 45.6705ZM61.705 51.2381C63.6371 51.2399 65.1784 51.0929 66.6731 50.6313C68.408 50.0952 68.4471 50.0058 68.4304 48.2132C68.4248 47.6809 68.2982 47.5915 67.79 47.7646C66.2674 48.2784 64.6907 48.4999 63.0806 48.5446C60.7984 48.606 58.5442 48.4831 56.3645 47.7255C56.2007 47.6678 55.9754 47.4984 55.847 47.8242C55.443 48.8405 55.9475 50.0226 56.9657 50.4116C58.6131 51.0408 60.3331 51.2157 61.705 51.2399V51.2381ZM62.0381 39.9745C63.8438 40.0005 65.5451 39.8293 67.1795 39.2355C67.5387 39.1052 68.112 39.0158 68.1251 38.6491C68.14 38.2452 67.5499 38.2117 67.2092 38.0404C67.1069 37.9883 66.9915 37.9604 66.8816 37.925C64.445 37.1674 61.9637 37.0874 59.4563 37.4466C58.4902 37.5862 57.5428 37.804 56.6474 38.2098C56.4426 38.3029 56.1299 38.3625 56.1225 38.6063C56.1132 38.9041 56.4631 38.9358 56.6735 39.0549C56.8335 39.1443 57.016 39.1964 57.1909 39.2578C58.7862 39.8163 60.4354 40.008 62.0381 39.9726V39.9745Z" fill="white"/>
<path d="M39.6712 20.4423C39.6712 23.5509 37.2699 25.9652 34.1762 25.9634C31.0843 25.9634 28.5788 23.469 28.5918 20.4088C28.6049 17.4156 31.1755 14.8692 34.1687 14.8822C37.2215 14.8952 39.6693 17.3691 39.6712 20.4405V20.4423ZM34.1371 17.8698C32.6945 17.8754 31.5757 18.9941 31.5757 20.4293C31.5757 21.8868 32.7354 23.0521 34.1799 23.0446C35.5537 23.0372 36.7785 21.8161 36.7748 20.4572C36.771 19.0202 35.589 17.8624 34.1371 17.8698Z" fill="white"/>
<path d="M46.9622 19.5879C48.2653 20.1873 49.8438 20.8072 51.0891 21.9706C51.6159 22.4639 51.3869 23.1787 51.0556 23.7855C49.5887 26.4716 48.1275 29.1595 46.6644 31.8474C46.4429 32.2551 46.2437 32.6758 45.998 33.0685C45.4898 33.882 44.7602 34.0998 43.9095 33.6623C42.8596 33.1206 41.8209 32.5548 40.7971 31.9628C40.0246 31.5161 39.8031 30.7287 40.1847 30.0009C40.5645 29.2786 41.3556 29.0199 42.1541 29.3903C42.6362 29.6137 43.109 29.8668 43.5632 30.1461C43.9579 30.388 44.1682 30.2931 44.3786 29.8985C45.4638 27.8751 46.562 25.861 47.6733 23.8525C47.8762 23.4858 47.8371 23.2848 47.4499 23.0949C46.9101 22.8306 46.3759 22.542 45.877 22.2088C45.3223 21.8384 45.1269 21.1534 45.3595 20.541C45.5885 19.9416 46.0352 19.6196 46.9641 19.5879H46.9622Z" fill="white"/>
<path d="M23.6255 7.05858C23.6944 7.07347 23.9196 7.07161 24.0965 7.16468C25.2431 7.77151 26.401 8.36531 27.5122 9.03171C28.1842 9.43378 28.335 10.2696 27.9776 10.9322C27.6239 11.5875 26.8477 11.8741 26.1273 11.5633C25.6191 11.3436 25.1296 11.07 24.6549 10.7815C24.2547 10.5395 24.022 10.5748 23.7875 11.016C22.732 13.0022 21.6543 14.9753 20.5653 16.9429C20.3755 17.2854 20.4052 17.4696 20.7664 17.6446C21.2671 17.8866 21.7566 18.1547 22.2295 18.445C22.9685 18.8974 23.1955 19.7201 22.8084 20.4256C22.4268 21.1181 21.5891 21.388 20.8278 20.9989C19.7556 20.4498 18.6946 19.8728 17.6522 19.2697C16.889 18.8285 16.6284 18.069 17.0397 17.3021C18.7448 14.1135 20.4834 10.9416 22.222 7.76965C22.4863 7.28754 22.9275 7.04555 23.6274 7.05858H23.6255Z" fill="white"/>
<path d="M38.9726 12.6355C38.1759 12.6336 37.4984 11.9635 37.5039 11.1835C37.5095 10.3906 38.1703 9.72788 38.9633 9.72229C39.747 9.71671 40.4376 10.3999 40.432 11.1761C40.4264 11.9765 39.7637 12.6392 38.9726 12.6373V12.6355Z" fill="white"/>
<path d="M27.2644 15.9191C27.2588 16.7493 26.6241 17.3766 25.8032 17.3617C24.9916 17.3468 24.3698 16.6879 24.3922 15.8632C24.4127 15.0721 25.0344 14.4616 25.8236 14.4578C26.6445 14.4541 27.27 15.087 27.2644 15.9191Z" fill="white"/>
<path d="M43.874 24.9787C43.8629 25.7958 43.2188 26.4008 42.3793 26.3803C41.5826 26.3599 40.9814 25.7474 40.9795 24.9526C40.9795 24.1354 41.618 23.5007 42.4389 23.5081C43.2579 23.5156 43.8852 24.1578 43.874 24.9787Z" fill="white"/>
</g>
<defs>
<clipPath id="clip0_2474_308">
<rect width="71.3902" height="71.3715" fill="white"/>
</clipPath>
</defs>
</svg>
