<svg width="23" height="22" viewBox="0 0 23 22" fill="none" xmlns="http://www.w3.org/2000/svg">
<g clip-path="url(#clip0_2474_236)">
<path d="M5.12779 21.1736V6.88779H0.285682V21.1736H5.12779ZM2.70736 4.93614C4.39589 4.93614 5.44692 3.83916 5.44692 2.4683C5.41546 1.06653 4.39595 0 2.7394 0C1.08311 0 0 1.06655 0 2.4683C0 3.83923 1.05077 4.93614 2.67575 4.93614H2.70736ZM7.80788 21.1736H12.65V13.1957C12.65 12.7687 12.6814 12.3422 12.8093 12.037C13.1594 11.1839 13.9561 10.3004 15.2937 10.3004C17.0458 10.3004 17.7468 11.6104 17.7468 13.5309V21.1734H22.5886V12.9821C22.5886 8.5941 20.1998 6.5524 17.0139 6.5524C14.4018 6.5524 13.2549 7.9842 12.6178 8.95939H12.6501V6.8875H7.80799C7.87153 8.22799 7.80788 21.1736 7.80788 21.1736Z" fill="#012C58"/>
</g>
<defs>
<clipPath id="clip0_2474_236">
<rect width="22.5851" height="21.1735" fill="white"/>
</clipPath>
</defs>
</svg>
