<svg width="50" height="33" viewBox="0 0 50 33" fill="none" xmlns="http://www.w3.org/2000/svg">
<g clip-path="url(#clip0_2474_382)">
<path d="M13.8379 0.000719091C14.9275 0.000719091 16.0171 -0.00170224 17.1059 0.0015262C17.9574 0.00394753 18.5764 0.54794 18.6103 1.31469C18.6434 2.05481 18.0833 2.66499 17.2616 2.74812C16.9154 2.78364 16.5627 2.78041 16.214 2.76426C15.8726 2.74812 15.7564 2.89744 15.7765 3.22028C15.8016 3.6085 15.6498 4.05161 15.8347 4.37284C16.038 4.72474 16.5385 4.61174 16.9057 4.69971C22.6224 6.07584 26.7653 10.6271 27.5644 16.4286C28.5587 23.6507 23.3827 30.6507 16.1793 31.8267C8.59084 33.0656 1.57705 28.0922 0.20819 20.5013C-1.11386 13.1744 4.04116 5.82079 11.3657 4.60205C11.7709 4.53426 11.9678 4.39463 11.9145 3.95959C11.8814 3.69486 11.9008 3.42206 11.9097 3.15329C11.9186 2.8821 11.8056 2.75861 11.5287 2.76507C11.1792 2.77314 10.8281 2.78041 10.4803 2.75458C9.70626 2.69727 9.19859 2.23722 9.09367 1.52777C9.0065 0.939388 9.38584 0.323563 9.97745 0.0886941C10.1679 0.0136329 10.3665 -8.80191e-05 10.5699 -8.80191e-05C11.6595 0.0015262 12.7491 -8.80191e-05 13.8379 -8.80191e-05V0.000719091ZM13.812 28.1059C19.3181 28.1164 23.7411 23.737 23.7613 18.2527C23.7823 12.7321 19.3827 8.28006 13.896 8.27037C8.3705 8.25988 3.93704 12.653 3.92574 18.1486C3.91444 23.6733 8.30431 28.0954 13.8112 28.1059H13.812Z" fill="#3369E7"/>
<path d="M32.2192 32.0092C28.6954 32.0092 25.1715 32.0068 21.6469 32.0124C21.1554 32.0124 20.7405 31.8881 20.483 31.4402C20.3378 31.1875 20.3337 30.9777 20.6469 30.8122C21.613 30.3005 22.5089 29.6799 23.3216 28.9486C23.5436 28.7485 23.7026 28.7807 23.9084 28.9575C24.2587 29.2586 24.4831 29.6371 24.5977 30.0729C24.6703 30.3482 24.8124 30.4248 25.0844 30.4248C29.8859 30.4184 34.6882 30.4184 39.4897 30.424C39.7657 30.424 39.9247 30.3708 40.0014 30.0584C40.2306 29.1294 40.8513 28.5822 41.7867 28.4151C42.1217 28.3554 42.2661 28.2327 42.2621 27.8679C42.2443 26.3618 42.2451 24.855 42.2621 23.3489C42.2661 23.0091 42.1443 22.8808 41.8198 22.821C40.6681 22.6096 40.0877 22.0398 39.886 20.9066C39.8206 20.5385 39.6608 20.4344 39.2976 20.436C35.7471 20.4489 32.1958 20.4441 28.6445 20.4441C28.2496 20.4441 28.0688 20.2461 28.1022 19.8501C28.1608 19.1543 28.5334 18.8065 29.22 18.8065C33.6987 18.8065 38.1781 18.8073 42.6568 18.8081C43.7472 18.8081 44.1072 19.1664 44.1072 20.2625C44.1096 23.7056 44.1096 27.1488 44.1088 30.5927C44.1088 31.6557 43.7609 32.0076 42.7117 32.0084C39.2144 32.01 35.7172 32.0084 32.22 32.0092H32.2192Z" fill="#333E5E"/>
<path d="M44.2476 21.5846C44.2476 21.5305 44.2476 21.4772 44.2476 21.4231C44.2476 20.7855 44.242 20.754 44.8699 20.6346C45.3162 20.5498 45.4671 20.3658 45.4849 19.8969C45.5172 19.0389 46.0224 18.4441 46.7989 18.118C47.1572 17.9679 47.1944 17.7911 47.1007 17.4449C46.7117 16.005 46.3501 14.5579 45.9845 13.1115C45.9304 12.8984 45.8804 12.7491 45.5931 12.7846C44.3663 12.9331 43.5034 12.4384 43.0579 11.2721C42.9538 11.0001 42.7851 11.0421 42.5745 11.0962C39.9974 11.7572 37.4186 12.4142 34.8415 13.0728C32.8883 13.5716 30.9375 14.0784 28.9819 14.5651C28.6631 14.6442 28.542 14.7467 28.6098 15.1043C28.701 15.5853 28.6349 16.0712 28.3879 16.5111C28.3516 16.5764 28.2805 16.6668 28.224 16.6684C28.0957 16.6709 28.1143 16.5409 28.1022 16.4538C27.9658 15.5078 27.7866 14.5716 27.4629 13.6692C27.3395 13.3246 27.5727 13.2907 27.8019 13.2318C29.8592 12.708 31.9166 12.1833 33.9739 11.6587C37.7625 10.6918 41.5519 9.72407 45.3404 8.75715C46.2896 8.51502 46.7125 8.77249 46.9563 9.7273C47.8045 13.0469 48.6544 16.3666 49.5035 19.687C49.7448 20.6314 49.493 21.0728 48.5471 21.319C47.3251 21.6378 46.0999 21.9445 44.8755 22.2553C44.4575 22.3613 44.2481 22.2041 44.2476 21.7839C44.2476 21.7169 44.2476 21.6491 44.2476 21.5821V21.5846Z" fill="#3369E7"/>
<path d="M37.2363 1.68767C37.8699 1.69332 38.2137 1.92173 38.3485 2.43989C38.9651 4.80715 39.564 7.17844 40.1742 9.54731C40.2371 9.79025 40.183 9.92745 39.9199 9.98072C39.6043 10.0445 39.2863 10.1147 38.9837 10.2212C38.6092 10.3528 38.4889 10.189 38.4066 9.85239C38.1104 8.6385 37.7803 7.43268 37.4905 6.21717C37.4034 5.85155 37.2605 5.75227 36.8795 5.81281C35.9134 5.96697 35.0393 5.4375 34.6108 4.43991C34.4639 4.0977 34.3178 4.02667 33.9554 4.1211C30.392 5.04767 26.8213 5.94921 23.2563 6.87012C22.9415 6.95164 22.7043 6.93066 22.446 6.71112C22.1401 6.45123 21.7866 6.24865 21.454 6.02024C21.379 5.96858 21.2595 5.93872 21.2628 5.83299C21.2676 5.68851 21.4185 5.69981 21.5097 5.67641C22.6671 5.37455 23.8269 5.08157 24.986 4.78616C28.9311 3.77889 32.8763 2.77 36.8222 1.76434C36.9901 1.72157 37.1644 1.70139 37.2363 1.68928V1.68767Z" fill="#333E5E"/>
<path d="M36.0652 25.4175C36.0725 27.5475 34.3662 29.2545 32.2217 29.2626C30.1168 29.2707 28.3605 27.5176 28.3613 25.4103C28.3621 23.3158 30.1281 21.5571 32.2306 21.5563C34.3541 21.5563 36.0579 23.2706 36.0652 25.4175ZM33.6883 23.5757C33.6891 23.1447 33.5688 23.0172 33.0571 22.8961C32.7972 22.8348 32.4929 22.8784 32.4074 22.4893C32.3719 22.3295 31.9877 22.382 31.9683 22.562C31.9368 22.859 31.7237 22.8784 31.5252 22.9445C30.915 23.1495 30.5631 23.5684 30.505 24.2117C30.4534 24.7864 30.7843 25.311 31.3718 25.5902C31.6866 25.7404 32.0167 25.859 32.3347 26.0027C32.5954 26.1205 32.7932 26.294 32.7512 26.6193C32.7068 26.9639 32.4493 27.0705 32.1596 27.1318C31.9869 27.169 31.8133 27.1536 31.639 27.1205C31.3581 27.0681 31.1007 26.9543 30.8472 26.8292C30.6971 26.7549 30.5655 26.7331 30.501 26.9422C30.3807 27.3336 30.5341 27.6742 30.9231 27.8203C31.0982 27.8865 31.2855 27.918 31.4671 27.9648C31.6753 28.018 31.9166 27.9777 31.9861 28.3005C32.0232 28.474 32.4074 28.4514 32.4267 28.2747C32.4606 27.9591 32.6842 27.9405 32.8965 27.8679C33.5583 27.6419 33.9029 27.2133 33.9377 26.5822C33.978 25.8526 33.7552 25.4684 33.0757 25.1447C32.7488 24.9889 32.4025 24.8735 32.0756 24.7169C31.823 24.5959 31.6067 24.4167 31.6842 24.0906C31.7585 23.7807 32.0127 23.6838 32.296 23.6556C32.6398 23.6209 32.9602 23.7194 33.2734 23.8509C33.6326 24.0019 33.6858 23.9639 33.6874 23.5733L33.6883 23.5757Z" fill="#333E5E"/>
<path d="M35.5132 18.666C34.9216 18.666 34.33 18.6531 33.7392 18.6717C33.397 18.6822 33.2662 18.5256 33.2097 18.2108C32.8554 16.235 34.2396 14.2471 36.2356 13.8791C38.2961 13.4989 40.2752 14.8363 40.6585 16.8622C40.7497 17.3432 40.7618 17.8194 40.665 18.302C40.6133 18.5587 40.4834 18.6757 40.2259 18.666C40.0782 18.6604 39.9305 18.666 39.7828 18.666C39.2894 18.666 38.9625 18.4392 38.8022 17.9856C38.64 17.5224 38.2993 17.2609 37.8369 17.1632C37.4696 17.0857 37.0935 17.0542 36.7239 16.9864C36.422 16.9316 36.121 16.8299 36.1137 16.4578C36.1064 16.097 36.3865 15.9663 36.6843 15.8759C36.9482 15.7952 37.2154 15.8226 37.4842 15.8323C37.6383 15.8379 37.8756 16.0171 37.9249 15.7548C37.9741 15.4957 37.9071 15.2043 37.6238 15.0679C37.4018 14.9614 37.1541 14.9566 36.9111 15.0042C36.7142 15.0429 36.5358 15.0647 36.4503 14.8218C36.4099 14.7064 36.3106 14.7136 36.213 14.737C36.1016 14.7637 35.9838 14.8129 36.0144 14.9445C36.0725 15.1955 35.9006 15.2681 35.7408 15.3714C35.1435 15.7572 34.9054 16.2657 35.0297 16.867C35.1573 17.4869 35.5503 17.8509 36.2533 17.9808C36.5431 18.0341 36.8393 18.0559 37.1298 18.1083C37.2598 18.1317 37.3873 18.1842 37.506 18.2439C37.6149 18.2988 37.7207 18.3916 37.7005 18.524C37.6755 18.6854 37.5197 18.6612 37.4067 18.662C36.7755 18.6677 36.1436 18.6644 35.5116 18.6652L35.5132 18.666Z" fill="#3369E7"/>
<path d="M27.1275 12.6926C26.7013 11.7838 26.3454 11.0639 25.891 10.3988C25.6488 10.0437 25.4019 9.69097 25.1404 9.35037C24.9983 9.16554 24.987 9.00816 25.0936 8.79992C25.8385 7.33744 27.615 6.52791 29.2607 6.91209C30.9322 7.30193 32.159 8.77167 32.1897 10.4206C32.2171 11.9323 31.9177 12.2592 30.3914 12.4045C30.1945 12.423 30.159 12.3851 30.2203 12.1898C30.6037 10.9694 30.2034 10.3197 28.941 10.0986C28.6376 10.0453 28.3285 10.0203 28.0274 9.95328C27.7925 9.90163 27.598 9.76038 27.5803 9.49646C27.5625 9.22043 27.728 9.04367 27.9725 8.94601C28.2768 8.82414 28.5916 8.78539 28.9209 8.8314C29.0952 8.85561 29.3664 9.013 29.3898 8.67401C29.4084 8.40928 29.3567 8.11791 29.0161 8.04608C28.8733 8.01622 28.7223 8.02429 28.5746 8.02025C28.318 8.0138 28.0597 8.10016 27.8668 7.79184C27.7796 7.65221 27.4915 7.69741 27.4987 7.93389C27.506 8.1954 27.364 8.27853 27.1937 8.39395C26.5455 8.83301 26.3341 9.3875 26.5512 10.0534C26.7231 10.5796 27.1065 10.8629 27.6327 10.9646C27.9878 11.0332 28.3494 11.0703 28.7046 11.1413C28.9871 11.1978 29.2187 11.3464 29.2292 11.6668C29.2389 11.9799 29.0218 12.1486 28.7578 12.2535C28.3841 12.4021 28.0016 12.4069 27.6101 12.3189C27.4043 12.2729 27.1283 12.0784 27.1275 12.6926Z" fill="#333E5E"/>
<path d="M38.713 24.0931C39.4346 24.0874 40.0504 24.696 40.0569 25.4224C40.0633 26.1116 39.4394 26.7347 38.7413 26.7363C38.048 26.738 37.4273 26.1254 37.4152 25.428C37.4031 24.7355 38.0222 24.0995 38.713 24.0939V24.0931Z" fill="#333E5E"/>
<path d="M44.442 16.0082C44.4404 16.7217 43.8432 17.3125 43.1289 17.3069C42.4485 17.3012 41.8496 16.6983 41.8448 16.0131C41.8391 15.3222 42.4727 14.6959 43.162 14.7096C43.8504 14.7233 44.4429 15.3246 44.4412 16.0082H44.442Z" fill="#3369E7"/>
<path d="M35.8999 8.99282C35.9063 9.73374 35.3502 10.2963 34.6109 10.2971C33.8902 10.2987 33.3462 9.74908 33.3438 9.01864C33.3413 8.28982 33.8797 7.74583 34.6077 7.74099C35.3389 7.73695 35.8942 8.27368 35.8999 8.99282Z" fill="#333E5E"/>
<path d="M30.7412 18.666C30.4724 18.666 30.2036 18.6725 29.9357 18.6644C29.6968 18.6572 29.608 18.5643 29.7727 18.3408C30.2149 17.7387 31.3352 17.7508 31.7493 18.361C31.8663 18.5337 31.8413 18.6451 31.6266 18.6555C31.332 18.6693 31.0366 18.6588 30.7412 18.6588V18.6668V18.666Z" fill="#3369E7"/>
<path d="M16.5316 18.3335C16.1676 18.9727 16.7342 19.3093 17.1337 19.7112C17.8536 20.436 18.5776 21.1568 19.3008 21.8783C19.5502 22.1269 19.7713 22.3965 19.9093 22.7242C20.0013 22.9413 20.0554 23.1681 19.8924 23.3747C19.7253 23.5862 19.4816 23.5652 19.2588 23.5192C18.8415 23.4336 18.4945 23.1963 18.1587 22.9478C17.1111 22.1713 16.0626 21.3965 15.0199 20.6136C14.8286 20.4699 14.647 20.4005 14.3951 20.4134C13.8528 20.4401 13.354 20.2649 12.9561 19.8888C12.7325 19.6773 12.5372 19.683 12.2708 19.7952C11.0586 20.3093 9.8382 20.8049 8.62027 21.3061C8.521 21.3473 8.42172 21.3933 8.31761 21.4159C8.044 21.4748 7.83415 21.3747 7.73326 21.1132C7.63479 20.859 7.74617 20.6548 7.97216 20.5401C8.27079 20.3884 8.58476 20.2657 8.8955 20.1374C9.86403 19.7371 10.8309 19.3311 11.8051 18.9461C12.0908 18.8331 12.2353 18.6967 12.2071 18.3585C12.1441 17.6055 12.4492 16.9953 13.04 16.5337C13.1934 16.4142 13.2523 16.2794 13.266 16.0914C13.3645 14.7249 13.4742 13.3601 13.5759 11.9945C13.6034 11.6288 13.6728 11.2753 13.8479 10.9501C13.9529 10.7547 14.0836 10.582 14.3338 10.5788C14.5993 10.5756 14.7495 10.7539 14.8576 10.9614C15.061 11.3504 15.1167 11.7782 15.1474 12.2092C15.2362 13.4682 15.3217 14.7273 15.4032 15.9872C15.4202 16.2479 15.5316 16.4303 15.7358 16.5974C16.2555 17.0211 16.492 17.5926 16.5324 18.3359L16.5316 18.3335Z" fill="#333E5E"/>
</g>
<defs>
<clipPath id="clip0_2474_382">
<rect width="49.5897" height="32.0156" fill="white"/>
</clipPath>
</defs>
</svg>
