<svg width="41" height="49" viewBox="0 0 41 49" fill="none" xmlns="http://www.w3.org/2000/svg">
<g clip-path="url(#clip0_2474_341)">
<path d="M23.6044 26.1782C23.5943 26.5045 23.4618 26.6441 23.3714 26.7987C22.1082 28.9465 20.8421 31.0913 19.5749 33.2371C18.3137 35.3738 16.2332 35.917 14.0915 34.6689C10.0901 32.3364 6.08875 30.0028 2.0884 27.6683C-0.0483408 26.4202 -0.588549 24.3708 0.667587 22.2381C4.64083 15.4955 8.61709 8.75596 12.5964 2.01841C13.7973 -0.0128923 15.8969 -0.568163 17.9362 0.615678C21.9998 2.97432 26.0594 5.33999 30.113 7.71571C32.1634 8.91762 32.6865 10.9881 31.4836 13.0475C30.6652 14.4482 29.8298 15.8379 29.0185 17.2427C28.8478 17.5369 28.653 17.6734 28.3036 17.6624C27.5856 17.6383 26.8657 17.6614 26.1468 17.6523C25.6698 17.6463 25.6367 17.5871 25.8837 17.1674C26.9259 15.3941 27.9722 13.6239 29.0175 11.8526C29.5949 10.8736 29.5025 10.5091 28.5395 9.94783C26.3436 8.6686 24.1436 7.3964 21.9566 6.1001C21.5851 5.8802 21.4034 5.9043 21.1754 6.29189C16.9712 13.4411 12.756 20.5833 8.53275 27.7205C8.33795 28.0499 8.39418 28.1954 8.70947 28.3782C10.9978 29.6976 13.2761 31.0371 15.5615 32.3615C16.2824 32.7792 16.7242 32.6627 17.153 31.9538C17.6109 31.1957 18.0577 30.4296 18.5045 29.6645C18.634 29.4415 18.7716 29.2578 19.0538 29.1995C19.6723 29.071 20.1964 28.7477 20.6945 28.3671C21.6353 27.6482 22.5852 26.9433 23.6054 26.1762L23.6044 26.1782ZM2.74709 24.3327C2.75914 24.6931 2.91477 24.9773 3.22203 25.1671C3.53531 25.3599 3.85462 25.5426 4.17292 25.7263C4.56184 25.9513 4.87211 25.8683 5.10372 25.4773C8.27369 20.1064 11.4436 14.7354 14.6126 9.36445C15.6237 7.65044 16.6258 5.93242 17.652 4.22745C17.8589 3.88404 17.8759 3.67619 17.4763 3.49244C17.159 3.34684 16.8678 3.14201 16.5626 2.97031C15.8386 2.56163 15.3918 2.66807 14.9711 3.37998C10.9747 10.1436 6.9814 16.9123 2.98707 23.68C2.86758 23.8828 2.76014 24.0897 2.74709 24.3327Z" fill="#3369E7"/>
<path d="M25.9979 19.7427C26.9177 19.7427 27.8384 19.7477 28.7582 19.7417C29.447 19.7367 30.0786 19.9174 30.662 20.2799C31.2012 20.6163 31.7484 20.9396 32.2866 21.279C34.0448 22.3895 34.5238 24.2612 33.4915 26.0585C32.2846 28.1611 31.0576 30.2537 29.8406 32.3513C29.5303 32.8855 29.5324 32.8895 30.1007 33.1234C31.3839 33.6516 32.6642 34.1878 33.9534 34.7019C34.7949 35.0373 35.2658 35.6397 35.4094 36.5243C35.9064 39.5939 36.4135 42.6624 36.9065 45.732C37.0963 46.9138 36.3322 47.9651 35.1764 48.1509C34.0579 48.3306 33.0176 47.5815 32.8188 46.4077C32.38 43.8202 31.9583 41.2296 31.5496 38.637C31.4954 38.2916 31.3428 38.1188 31.0295 37.9913C29.0142 37.176 27.006 36.3446 24.9948 35.5192C23.8551 35.0513 23.1262 34.243 22.9444 33.0049C22.8299 32.2248 23.084 31.5209 23.4615 30.8511C24.6875 28.6813 25.9105 26.5104 27.1345 24.3405C27.2089 24.209 27.2801 24.0774 27.3544 23.9459C27.4689 23.7401 27.4107 23.6216 27.1737 23.6206C25.9527 23.6135 24.7317 23.6105 23.5107 23.6105C23.2918 23.6105 23.1503 23.7742 22.9946 23.8957C21.7294 24.8847 20.4753 25.8878 19.1991 26.8618C18.0293 27.7535 16.4338 27.1922 16.1165 25.7854C15.9478 25.0333 16.1677 24.3696 16.7712 23.9007C18.4219 22.6175 20.0938 21.3623 21.7606 20.1002C22.1221 19.8261 22.5418 19.7397 22.9896 19.7417C23.9937 19.7467 24.9968 19.7437 26.0009 19.7437L25.9979 19.7427Z" fill="#333E5E"/>
<path d="M14.9081 48.174C13.9943 48.1669 13.194 47.5554 12.938 46.6688C12.6759 45.7631 13.0173 44.8544 13.8598 44.3292C15.5055 43.3031 17.1311 42.2377 18.8271 41.2999C19.8613 40.7285 20.517 39.9995 20.7981 38.8428C21.0251 37.905 21.4127 37.0053 21.7299 36.0896C21.8043 35.8737 21.8836 35.6839 22.1185 35.9711C22.8566 36.8728 23.8587 37.3658 24.928 37.7363C25.3417 37.8789 25.412 38.0686 25.2654 38.4753C24.8136 39.7335 24.3958 41.0047 23.9822 42.2759C23.7813 42.8934 23.4229 43.3593 22.8636 43.6977C20.6174 45.0562 18.3782 46.4268 16.1371 47.7934C15.7585 48.0244 15.3579 48.177 14.9081 48.173V48.174Z" fill="#333E5E"/>
<path d="M36.1145 12.8506C38.3315 12.8415 40.1439 14.6389 40.149 16.8539C40.154 19.067 38.3446 20.8794 36.1325 20.8764C33.9396 20.8734 32.1382 19.085 32.1231 16.8971C32.1081 14.681 33.9044 12.8606 36.1145 12.8506Z" fill="#333E5E"/>
</g>
<defs>
<clipPath id="clip0_2474_341">
<rect width="40.1492" height="48.178" fill="white"/>
</clipPath>
</defs>
</svg>
