<svg width="39" height="47" viewBox="0 0 39 47" fill="none" xmlns="http://www.w3.org/2000/svg">
<g clip-path="url(#clip0_2474_362)">
<path d="M0 6.59908C0.524155 5.16614 1.55361 4.57788 3.06574 4.64199C4.47606 4.70232 5.89203 4.67781 7.30423 4.64764C7.95471 4.63444 8.19417 4.87955 8.18285 5.52815C8.13383 8.24508 8.49584 7.73412 5.96556 7.79257C5.65258 7.80011 5.33771 7.78503 5.02284 7.80011C3.67851 7.86799 2.9413 8.59389 2.90736 9.94387C2.87531 11.2297 2.89605 12.5194 2.89605 13.8053C2.89605 22.2521 2.89605 30.7008 2.89605 39.1476C2.89605 41.2405 3.47677 41.8117 5.59413 41.8136C7.69829 41.8136 9.80245 41.8061 11.9066 41.8193C12.8418 41.8249 13.1454 42.1964 13.0171 43.107C12.8462 44.3276 12.1322 44.9378 10.8753 44.9378C8.26958 44.9378 5.66201 44.8945 3.05631 44.9548C1.53853 44.9906 0.518499 44.4231 0.00188545 42.9864V6.59908H0Z" fill="#3369E7"/>
<path d="M19.0427 -6.63986e-06C20.1117 0.586368 20.8735 1.42539 21.1431 2.63585C21.2411 3.07893 21.5164 3.16378 21.8935 3.16378C22.5213 3.16378 23.1492 3.17886 23.777 3.17886C24.4275 3.17886 24.7669 3.45791 24.7518 4.14421C24.733 5.08505 24.7349 6.02778 24.7518 6.96862C24.7631 7.63418 24.4766 7.95471 23.7997 7.95282C19.8138 7.94717 15.828 7.94905 11.8421 7.95282C11.2294 7.95282 10.8994 7.68886 10.9013 7.05346C10.9051 6.08057 10.907 5.10768 10.8975 4.13479C10.8919 3.5107 11.1936 3.20714 11.8063 3.19017C12.0571 3.18452 12.3135 3.14869 12.5586 3.18452C13.4731 3.31839 13.9991 3.01671 14.2518 2.05136C14.5119 1.0615 15.3189 0.458158 16.2107 -0.00189209H19.0389L19.0427 -6.63986e-06ZM17.5777 5.65446C18.4129 5.63749 19.0502 4.91913 19.0257 4.0292C18.9993 3.13927 18.4167 2.61134 17.4985 2.64717C16.65 2.6811 16.0693 3.31461 16.0901 4.18569C16.1089 5.0398 16.75 5.67331 17.5777 5.65446Z" fill="#3369E7"/>
<path d="M38.2745 36.3892C37.7918 37.5996 36.8076 38.2501 35.6443 38.6291C33.5307 39.3192 31.3926 39.3173 29.2696 38.6574C28.5795 38.4424 27.9422 38.0993 27.4011 37.6015C26.2887 36.5815 26.3038 35.3692 27.4558 34.3755C28.1346 33.791 28.9321 33.4234 29.7938 33.2197C31.6886 32.7691 33.5835 32.7635 35.4539 33.3423C36.6926 33.725 37.7353 34.3793 38.2764 35.635V36.3892H38.2745ZM32.4504 37.1509C33.7136 37.166 34.958 37.0661 36.1157 36.4985C36.5474 36.2874 36.9924 36.0215 37.0188 35.5011C37.049 34.9223 36.587 34.5942 36.1176 34.4113C33.6589 33.4535 31.1815 33.3593 28.7172 34.3812C28.2552 34.5735 27.7914 34.8752 27.8103 35.4653C27.8272 36.0064 28.2797 36.2572 28.6983 36.4703C29.8786 37.0679 31.1569 37.166 32.4504 37.149V37.1509Z" fill="#333E5E"/>
<path d="M38.275 43.7424C37.8338 44.6644 37.1248 45.3017 36.184 45.675C33.4143 46.7742 30.6766 46.7592 28.02 45.3281C27.1847 44.8775 26.5908 44.1968 26.5908 43.1674C26.5908 42.9505 26.6398 42.7017 26.8397 42.5829C27.0924 42.432 27.2224 42.6941 27.3846 42.8223C30.1204 44.9831 34.8152 44.9906 37.4567 42.8223C37.7602 42.5735 37.9884 42.3566 38.2731 42.8016V43.7443L38.275 43.7424Z" fill="#333E5E"/>
<path d="M38.2746 40.1601C37.8108 41.1556 37.0132 41.7872 36.0158 42.1775C33.4969 43.1636 30.9779 43.0957 28.5061 42.0361C27.5973 41.6458 26.8224 41.0387 26.6055 39.9715C26.5358 39.6246 26.5207 39.2117 26.8431 39.0288C27.1391 38.8629 27.2975 39.2664 27.5124 39.4248C29.8014 41.1066 32.3486 41.133 34.975 40.573C35.9366 40.3675 36.819 39.9527 37.5261 39.2362C37.7844 38.9741 38.0144 38.8271 38.2746 39.2173V40.1601Z" fill="#333E5E"/>
<path d="M18.2886 46.7592C17.706 46.5386 17.1083 46.3481 16.5426 46.0898C15.9921 45.8391 15.5396 45.445 15.2681 44.8888C15.0833 44.5079 14.9702 44.0403 15.319 43.7556C15.6452 43.4898 15.8413 43.9593 16.0675 44.1233C18.0736 45.5921 21.886 45.5468 23.8733 44.0196C24.0562 43.8801 24.2051 43.5369 24.4785 43.7142C24.7689 43.9027 24.7462 44.2572 24.6633 44.572C24.5049 45.1848 24.0939 45.5958 23.5791 45.9314C22.9381 46.35 22.1952 46.499 21.4938 46.7592H18.2886Z" fill="#333E5E"/>
<path d="M35.6727 18.6678C35.6727 22.3709 35.6765 26.0739 35.6727 29.7769C35.6727 30.9233 35.6595 30.9534 34.5131 30.7743C32.5334 30.4632 32.7672 30.8233 32.7616 28.8304C32.7484 22.6801 32.7597 16.5279 32.7559 10.3775C32.7559 8.43739 32.1035 7.80011 30.1445 7.79634C29.956 7.79634 29.7675 7.79634 29.5789 7.79634C27.3465 7.79634 27.1146 7.5041 27.4653 5.24344C27.5351 4.7947 27.7632 4.66461 28.1573 4.66461C29.9145 4.66838 31.6755 4.60993 33.4271 4.69477C34.8054 4.76077 35.6557 5.86752 35.6651 7.46639C35.684 11.2015 35.6708 14.9347 35.6727 18.6697V18.6678Z" fill="#3369E7"/>
<path d="M22.6749 15.5173C22.6749 17.1897 22.641 17.2236 20.9045 17.2292C19.6186 17.233 19.6318 17.233 19.6035 18.5359C19.5903 19.1411 19.7958 19.9122 19.0586 20.1969C18.2629 20.5043 17.3824 20.4741 16.5717 20.1649C16.1192 19.9933 16.1588 19.5125 16.1475 19.1015C16.1148 17.876 15.5045 17.2512 14.3167 17.2274C13.2345 17.2066 13.0195 16.9898 12.9931 15.8812C12.9856 15.5682 12.995 15.2533 12.9969 14.9403C13.0025 14.1635 13.4098 13.8317 14.1678 13.7751C14.8069 13.7261 15.6554 14.1013 16.0306 13.5696C16.3322 13.1416 16.1418 12.3591 16.1475 11.735C16.1531 11.0242 16.5283 10.715 17.2071 10.7056C17.3956 10.7037 17.5842 10.6999 17.7708 10.6999C19.4659 10.6943 19.5865 10.8112 19.6073 12.5024C19.6224 13.7393 19.6431 13.7619 20.8762 13.777C22.5505 13.7996 22.673 13.9165 22.673 15.5154L22.6749 15.5173Z" fill="#333E5E"/>
<path d="M18.0987 25.8721C14.7105 25.8721 11.3205 25.8552 7.93234 25.8834C7.14611 25.8891 6.87272 25.595 6.9142 24.8276C6.94437 24.2563 7.17816 24.0546 7.72494 24.064C8.69784 24.0828 9.67073 24.0659 10.6436 24.0659C16.5432 24.0659 22.4428 24.0678 28.3423 24.0621C28.9419 24.0621 29.4642 24.0433 29.468 24.9049C29.4698 25.6553 29.17 25.8853 28.4573 25.8797C25.2257 25.8589 21.994 25.8703 18.7605 25.8721C18.5399 25.8721 18.3212 25.8721 18.1006 25.8721H18.0987Z" fill="#333E5E"/>
<path d="M18.1757 29.347C21.5016 29.347 24.8256 29.3414 28.1516 29.3508C28.7398 29.3508 29.4752 29.134 29.4544 30.1823C29.4356 31.1985 28.7247 31.1344 28.0724 31.1344C23.0533 31.1439 18.0342 31.1401 13.0152 31.1401C11.322 31.1401 9.62702 31.1231 7.93389 31.1457C7.2457 31.1552 6.90066 30.9647 6.90632 30.1898C6.91197 29.4206 7.30603 29.3357 7.9188 29.3376C11.339 29.3508 14.7573 29.3433 18.1775 29.3433L18.1757 29.347Z" fill="#333E5E"/>
<path d="M20.2212 35.7689C21.213 35.7953 22.5177 35.9706 23.6509 36.7493C25.0461 37.709 25.0235 38.9836 23.6245 39.9206C21.6843 41.2178 18.0869 41.2122 16.1656 39.9074C14.7874 38.9704 14.7987 37.6675 16.1939 36.7323C17.1215 36.1101 18.4206 35.7708 20.2212 35.7689ZM19.9309 36.4363C18.8826 36.4816 17.8569 36.5947 16.9047 37.0548C16.5635 37.2188 16.2316 37.4337 16.2505 37.8881C16.2674 38.3237 16.5653 38.5782 16.9179 38.7234C18.9617 39.5699 21.0188 39.5643 23.023 38.6329C23.8809 38.2332 23.8545 37.5638 23.0173 37.0981C22.0595 36.5645 20.9905 36.4816 19.9271 36.4344L19.9309 36.4363Z" fill="#333E5E"/>
<path d="M19.939 43.9536C18.8209 43.865 17.733 43.7462 16.7281 43.2541C16.1587 42.9769 15.6307 42.6432 15.3272 42.0531C15.1349 41.6779 14.967 41.2065 15.2913 40.9124C15.6402 40.5937 15.8702 41.1066 16.1134 41.2838C18.0441 42.7017 21.832 42.6564 23.8437 41.1801C24.0417 41.0349 24.2114 40.6277 24.5187 40.8897C24.7733 41.1047 24.6979 41.461 24.5998 41.774C24.4509 42.2473 24.1379 42.5791 23.7438 42.8544C22.5918 43.6576 21.2701 43.8556 19.9371 43.9517L19.939 43.9536Z" fill="#333E5E"/>
<path d="M15.2254 34.2567C14.2713 35.3428 13.3908 36.3458 11.7731 36.1101C10.5777 35.9367 9.33711 36.0498 8.11723 36.0837C7.43281 36.1026 7.27254 35.7802 7.27443 35.1712C7.27443 34.5716 7.41207 34.2398 8.10591 34.2473C10.4778 34.2737 12.8516 34.2567 15.2254 34.2567Z" fill="#333E5E"/>
<path d="M31.9523 34.4227C32.633 34.4962 33.3155 34.5697 33.9961 34.6451C34.3054 34.6791 34.5486 34.7922 34.5222 35.1618C34.4958 35.5388 34.2318 35.5973 33.9226 35.5747C33.5191 35.5464 33.1156 35.503 32.7103 35.4955C32.3879 35.4879 31.9599 35.3767 32.0541 35.9725C32.0673 36.0536 32.0409 36.1742 31.9844 36.2289C31.8279 36.3798 31.5771 36.3798 31.481 36.2327C31.1491 35.7293 30.5608 35.3748 30.4873 34.7262C30.4515 34.4132 30.7494 34.3397 31.0209 34.3623C31.332 34.3868 31.6393 34.4264 31.9504 34.4604L31.9542 34.4227H31.9523Z" fill="#333E5E"/>
</g>
<defs>
<clipPath id="clip0_2474_362">
<rect width="38.2746" height="46.7592" fill="white"/>
</clipPath>
</defs>
</svg>
