<svg width="370" height="394" viewBox="0 0 370 394" fill="none" xmlns="http://www.w3.org/2000/svg">
<path d="M28.2059 131.648L0 176.699L86.1562 230.64L114.362 185.589L28.2059 131.648Z" fill="#1E9A97"/>
<path d="M81.4264 216.087L65.792 206.298L64.0434 209.091L79.6778 218.88L81.4264 216.087Z" fill="white"/>
<path d="M83.6841 212.523L75.0928 207.144L74.3515 208.328L82.9428 213.707L83.6841 212.523Z" fill="white"/>
<path d="M84.9432 210.431L79.3877 206.953L78.6464 208.137L84.202 211.615L84.9432 210.431Z" fill="white"/>
<path d="M89.9948 198.214L80.432 192.227C79.3925 191.576 78.0222 191.891 77.3714 192.931L76.6111 194.145C75.9603 195.185 76.2754 196.555 77.3149 197.206L86.8777 203.193C87.9172 203.844 89.2875 203.529 89.9383 202.489L90.6986 201.275C91.3494 200.235 91.0343 198.865 89.9948 198.214Z" fill="white"/>
<path d="M33.061 145.887L41.6523 151.266L42.3936 150.082L33.8023 144.703L33.061 145.887Z" fill="white"/>
<path d="M31.7804 147.941L37.3359 151.419L38.0772 150.235L32.5217 146.757L31.7804 147.941Z" fill="white"/>
<path d="M80.928 223.965L7.21631 177.796L7.50285 177.331C8.61318 175.576 8.36246 173.319 6.92978 171.815L6.60742 171.493L26.4143 139.866L26.8441 140.009C28.8141 140.654 30.9631 139.866 32.0376 138.111L32.3241 137.645L106.036 183.814L105.749 184.279C104.424 186.393 105.069 189.186 107.182 190.476L107.648 190.762L87.8765 222.353L87.4109 222.066C85.2977 220.741 82.504 221.386 81.2145 223.499L80.928 223.965ZM8.75644 177.438L80.6056 222.425C82.2532 220.311 85.1544 219.631 87.5542 220.813L106.143 191.12C104.03 189.473 103.35 186.572 104.531 184.172L32.6823 139.186C31.3212 140.941 29.1006 141.729 26.9157 141.227L8.04011 171.385C9.43697 173.104 9.72351 175.468 8.72063 177.438H8.75644Z" fill="white"/>
<path d="M57.1481 192.804C63.5968 192.804 68.8245 187.576 68.8245 181.127C68.8245 174.679 63.5968 169.451 57.1481 169.451C50.6994 169.451 45.4717 174.679 45.4717 181.127C45.4717 187.576 50.6994 192.804 57.1481 192.804Z" fill="white"/>
<path d="M53.5995 186.106C51.8086 184.745 51.0564 182.883 52.0951 181.056L54.6382 182.632C54.3516 183.241 54.3874 183.778 54.7814 184.208L56.1783 181.987C54.9247 180.662 53.3129 179.086 54.7098 176.865C55.8201 175.11 57.9333 175.003 59.9033 176.077L60.6196 174.931L61.5151 175.504L60.7987 176.65C62.6254 178.011 63.2343 179.766 62.2314 181.593L59.6884 179.981C59.9391 179.444 59.9033 178.943 59.5809 178.549L58.2199 180.698C59.4377 182.059 61.1211 183.671 59.76 185.82C58.8288 187.324 56.7872 187.897 54.5307 186.608L53.8144 187.754L52.9189 187.181L53.6353 186.034L53.5995 186.106ZM57.4677 179.91L58.6855 177.976C58.1124 177.725 57.611 177.832 57.2528 178.37C56.9304 178.871 57.1095 179.372 57.4677 179.91ZM56.8588 182.847L55.6052 184.817C56.2141 185.067 56.823 184.924 57.1454 184.387C57.4677 183.85 57.2886 183.384 56.8588 182.811V182.847Z" fill="#1E9A97"/>
<path d="M68.3229 89.3886L30.7383 126.973L102.615 198.85L140.2 161.265L68.3229 89.3886Z" fill="#1EB2A6"/>
<path d="M101.303 183.585L88.2598 170.542L85.9297 172.872L98.9729 185.915L101.303 183.585Z" fill="white"/>
<path d="M104.307 180.639L97.1396 173.471L96.1519 174.459L103.319 181.626L104.307 180.639Z" fill="white"/>
<path d="M106.007 178.889L101.372 174.254L100.384 175.242L105.019 179.877L106.007 178.889Z" fill="white"/>
<path d="M113.628 168.113L105.65 160.135C104.783 159.268 103.377 159.268 102.51 160.135L101.497 161.148C100.63 162.015 100.63 163.421 101.497 164.288L109.475 172.266C110.342 173.133 111.748 173.133 112.615 172.266L113.628 171.253C114.495 170.386 114.495 168.98 113.628 168.113Z" fill="white"/>
<path d="M69.8882 104.362L77.0557 111.529L78.0434 110.542L70.876 103.374L69.8882 104.362Z" fill="white"/>
<path d="M68.1436 106.076L72.7783 110.711L73.7661 109.723L69.1313 105.088L68.1436 106.076Z" fill="white"/>
<path d="M99.0186 191.192L37.5205 129.694L37.9145 129.3C39.383 127.831 39.6695 125.575 38.595 123.82L38.3801 123.426L64.7774 97.0285L65.1713 97.2434C66.9622 98.3179 69.2187 98.0314 70.6514 96.5629L71.0454 96.1689L132.543 157.667L132.149 158.061C130.394 159.816 130.394 162.681 132.149 164.436L132.543 164.83L106.218 191.156L105.824 190.762C104.069 189.007 101.203 189.007 99.4484 190.762L99.0544 191.156L99.0186 191.192ZM39.0965 129.658L99.0544 189.616C101.132 187.932 104.105 187.932 106.182 189.616L130.967 164.83C129.284 162.753 129.284 159.78 130.967 157.703L71.0095 97.7448C69.2903 99.1417 66.9264 99.4282 64.9564 98.4254L39.777 123.605C40.7441 125.575 40.4933 127.975 39.0965 129.658Z" fill="white"/>
<path d="M85.4801 155.769C91.9288 155.769 97.1565 150.541 97.1565 144.092C97.1565 137.644 91.9288 132.416 85.4801 132.416C79.0314 132.416 73.8037 137.644 73.8037 144.092C73.8037 150.541 79.0314 155.769 85.4801 155.769Z" fill="white"/>
<path d="M80.8937 148.175C79.461 146.456 79.1387 144.486 80.5714 142.91L82.6846 145.024C82.2548 145.561 82.1831 146.062 82.4697 146.599L84.2963 144.773C83.3651 143.197 82.1473 141.299 84.0098 139.472C85.4783 138.003 87.5557 138.362 89.2391 139.866L90.1704 138.935L90.9225 139.687L89.9913 140.618C91.4598 142.337 91.6747 144.2 90.2778 145.776L88.1288 143.627C88.5228 143.161 88.5586 142.66 88.3437 142.23L86.5528 144.021C87.4482 145.632 88.7018 147.567 86.911 149.357C85.6574 150.611 83.5442 150.718 81.6101 148.963L80.6788 149.895L79.9266 149.142L80.8937 148.175ZM86.0514 143.018L87.6631 141.406C87.1617 141.048 86.6245 141.048 86.1946 141.478C85.8007 141.872 85.8365 142.409 86.0514 143.018ZM84.8336 145.74L83.186 147.387C83.7233 147.781 84.3321 147.746 84.762 147.316C85.1918 146.886 85.1201 146.349 84.8336 145.74Z" fill="#04BFAD"/>
<path d="M142.754 85.3879C162.159 85.3879 177.89 69.6567 177.89 50.2513C177.89 30.8459 162.159 15.1147 142.754 15.1147C123.348 15.1147 107.617 30.8459 107.617 50.2513C107.617 69.6567 123.348 85.3879 142.754 85.3879Z" fill="#FFC239"/>
<path d="M142.753 77.7588C157.945 77.7588 170.26 65.4433 170.26 50.2513C170.26 35.0593 157.945 22.7437 142.753 22.7437C127.561 22.7437 115.245 35.0593 115.245 50.2513C115.245 65.4433 127.561 77.7588 142.753 77.7588Z" fill="#E2881E"/>
<path d="M142.753 75.8249C156.877 75.8249 168.327 64.3753 168.327 50.2515C168.327 36.1277 156.877 24.678 142.753 24.678C128.629 24.678 117.18 36.1277 117.18 50.2515C117.18 64.3753 128.629 75.8249 142.753 75.8249Z" fill="#FFA92A"/>
<path d="M151.231 55.2169C151.231 56.3921 150.921 57.4818 150.301 58.4861C149.703 59.469 148.806 60.2809 147.609 60.9219C146.434 61.5416 145.034 61.8835 143.41 61.9476V64.5437H141.359V61.9155C139.094 61.7232 137.267 61.0501 135.878 59.8963C134.49 58.7211 133.752 57.1293 133.667 55.1207H139.5C139.628 56.4028 140.248 57.2254 141.359 57.5886V52.5246C139.692 52.0973 138.357 51.6806 137.353 51.2746C136.37 50.8687 135.504 50.217 134.757 49.3196C134.009 48.4221 133.635 47.1935 133.635 45.6337C133.635 43.6893 134.351 42.1295 135.782 40.9543C137.235 39.7791 139.094 39.1167 141.359 38.9672V36.371H143.41V38.9672C145.654 39.1381 147.427 39.7898 148.731 40.9223C150.034 42.0547 150.761 43.6252 150.91 45.6337H145.045C144.917 44.4799 144.372 43.732 143.41 43.3902V48.358C145.184 48.8495 146.551 49.2875 147.513 49.6721C148.474 50.0567 149.329 50.6977 150.077 51.5952C150.846 52.4712 151.231 53.6785 151.231 55.2169ZM139.436 45.3773C139.436 45.9115 139.596 46.3602 139.917 46.7234C140.259 47.0867 140.739 47.4072 141.359 47.685V43.2299C140.761 43.3367 140.291 43.5718 139.949 43.935C139.607 44.2769 139.436 44.7577 139.436 45.3773ZM143.41 57.6848C144.051 57.578 144.553 57.3216 144.917 56.9156C145.301 56.5096 145.494 56.0075 145.494 55.4092C145.494 54.8537 145.312 54.4049 144.949 54.0631C144.607 53.6998 144.094 53.39 143.41 53.1336V57.6848Z" fill="white"/>
<path d="M224.057 135.532C240.555 135.532 253.929 122.158 253.929 105.661C253.929 89.1631 240.555 75.7892 224.057 75.7892C207.559 75.7892 194.186 89.1631 194.186 105.661C194.186 122.158 207.559 135.532 224.057 135.532Z" fill="#FFC239"/>
<path d="M224.057 129.013C236.954 129.013 247.41 118.558 247.41 105.661C247.41 92.7631 236.954 82.3077 224.057 82.3077C211.159 82.3077 200.704 92.7631 200.704 105.661C200.704 118.558 211.159 129.013 224.057 129.013Z" fill="#E2881E"/>
<path d="M224.055 127.402C236.063 127.402 245.796 117.668 245.796 105.661C245.796 93.6535 236.063 83.9197 224.055 83.9197C212.048 83.9197 202.314 93.6535 202.314 105.661C202.314 117.668 212.048 127.402 224.055 127.402Z" fill="#FFA92A"/>
<path d="M231.249 110.12C231.249 111.119 230.986 112.044 230.459 112.897C229.951 113.732 229.189 114.422 228.172 114.967C227.174 115.493 225.985 115.784 224.605 115.838V118.044H222.863V115.811C220.938 115.647 219.386 115.076 218.207 114.095C217.027 113.097 216.4 111.745 216.328 110.039H221.283C221.392 111.128 221.919 111.826 222.863 112.135V107.833C221.447 107.47 220.312 107.116 219.459 106.771C218.624 106.426 217.889 105.873 217.254 105.11C216.618 104.348 216.301 103.304 216.301 101.979C216.301 100.327 216.909 99.0021 218.125 98.0037C219.359 97.0053 220.938 96.4426 222.863 96.3155V94.1101H224.605V96.3155C226.511 96.4608 228.018 97.0144 229.125 97.9765C230.232 98.9385 230.849 100.273 230.977 101.979H225.994C225.885 100.999 225.422 100.363 224.605 100.073V104.293C226.112 104.711 227.273 105.083 228.09 105.41C228.907 105.736 229.633 106.281 230.269 107.043C230.922 107.788 231.249 108.813 231.249 110.12ZM221.229 101.761C221.229 102.215 221.365 102.596 221.637 102.905C221.928 103.213 222.336 103.486 222.863 103.722V99.9369C222.354 100.028 221.955 100.227 221.665 100.536C221.374 100.826 221.229 101.235 221.229 101.761ZM224.605 112.217C225.15 112.126 225.576 111.908 225.885 111.563C226.212 111.218 226.375 110.792 226.375 110.284C226.375 109.812 226.221 109.43 225.912 109.14C225.622 108.831 225.186 108.568 224.605 108.35V112.217Z" fill="white"/>
<path d="M216.929 45.4878C229.491 45.4878 239.673 35.305 239.673 22.7439C239.673 10.1828 229.491 0 216.929 0C204.368 0 194.186 10.1828 194.186 22.7439C194.186 35.305 204.368 45.4878 216.929 45.4878Z" fill="#FFC239"/>
<path d="M216.928 40.545C226.759 40.545 234.729 32.5752 234.729 22.7439C234.729 12.9126 226.759 4.94275 216.928 4.94275C207.097 4.94275 199.127 12.9126 199.127 22.7439C199.127 32.5752 207.097 40.545 216.928 40.545Z" fill="#E2881E"/>
<path d="M216.931 39.2913C226.07 39.2913 233.479 31.8827 233.479 22.7437C233.479 13.6048 226.07 6.19623 216.931 6.19623C207.792 6.19623 200.384 13.6048 200.384 22.7437C200.384 31.8827 207.792 39.2913 216.931 39.2913Z" fill="#FFA92A"/>
<path d="M222.418 26.2923C222.418 27.0525 222.218 27.7573 221.817 28.4069C221.43 29.0426 220.85 29.5678 220.076 29.9824C219.316 30.3832 218.41 30.6043 217.36 30.6458V32.325H216.033V30.6251C214.568 30.5007 213.387 30.0653 212.488 29.319C211.59 28.5589 211.113 27.5293 211.058 26.2301H214.831C214.914 27.0594 215.315 27.5915 216.033 27.8264V24.5509C214.955 24.2745 214.092 24.005 213.442 23.7424C212.806 23.4798 212.246 23.0583 211.763 22.4779C211.279 21.8974 211.037 21.1027 211.037 20.0938C211.037 18.8361 211.5 17.8272 212.426 17.0671C213.366 16.307 214.568 15.8785 216.033 15.7818V14.1026H217.36V15.7818C218.811 15.8924 219.958 16.3139 220.801 17.0464C221.644 17.7789 222.114 18.7947 222.211 20.0938H218.417C218.334 19.3475 217.982 18.8638 217.36 18.6426V21.8559C218.507 22.1738 219.392 22.4571 220.014 22.7059C220.636 22.9547 221.188 23.3693 221.672 23.9497C222.17 24.5164 222.418 25.2972 222.418 26.2923ZM214.789 19.928C214.789 20.2735 214.893 20.5637 215.1 20.7987C215.322 21.0336 215.632 21.2409 216.033 21.4206V18.539C215.646 18.6081 215.342 18.7601 215.121 18.9951C214.9 19.2162 214.789 19.5272 214.789 19.928ZM217.36 27.8886C217.775 27.8195 218.099 27.6537 218.334 27.3911C218.583 27.1285 218.708 26.8037 218.708 26.4167C218.708 26.0574 218.59 25.7671 218.355 25.546C218.134 25.3111 217.802 25.1107 217.36 24.9448V27.8886Z" fill="white"/>
<path d="M142.75 58.5967H89.4541L122.084 138.039H142.75H163.417L196.082 58.5967H142.75Z" fill="#3369E7"/>
<path d="M163.418 138.039H122.085C122.085 138.039 10.6221 195.454 10.6221 295.671C10.6221 383.566 109.692 393.38 142.716 393.38C175.739 393.38 274.809 383.53 274.809 295.671C274.809 195.454 163.346 138.039 163.346 138.039H163.418Z" fill="#3369E7"/>
<path d="M143.34 322.497C171.073 322.497 193.555 300.015 193.555 272.282C193.555 244.549 171.073 222.066 143.34 222.066C115.606 222.066 93.124 244.549 93.124 272.282C93.124 300.015 115.606 322.497 143.34 322.497Z" fill="white"/>
<path d="M175.668 131.664H109.872C106.489 131.664 103.747 134.406 103.747 137.789C103.747 141.171 106.489 143.913 109.872 143.913H175.668C179.05 143.913 181.793 141.171 181.793 137.789C181.793 134.406 179.05 131.664 175.668 131.664Z" fill="#004DFF"/>
<path d="M175.668 119.414H109.872C106.489 119.414 103.747 122.156 103.747 125.539C103.747 128.922 106.489 131.664 109.872 131.664H175.668C179.05 131.664 181.793 128.922 181.793 125.539C181.793 122.156 179.05 119.414 175.668 119.414Z" fill="#004DFF"/>
<path d="M160.834 281.55C160.834 283.919 160.209 286.116 158.96 288.14C157.754 290.122 155.944 291.759 153.532 293.051C151.163 294.3 148.341 294.989 145.068 295.119V300.352H140.932V295.054C136.366 294.666 132.683 293.309 129.883 290.983C127.083 288.614 125.597 285.405 125.425 281.356H137.185C137.443 283.94 138.692 285.599 140.932 286.331V276.122C137.572 275.261 134.88 274.421 132.856 273.602C130.874 272.784 129.13 271.47 127.622 269.661C126.114 267.851 125.36 265.375 125.36 262.23C125.36 258.31 126.803 255.166 129.689 252.796C132.619 250.427 136.366 249.092 140.932 248.79V243.557H145.068V248.79C149.591 249.135 153.166 250.449 155.794 252.732C158.421 255.015 159.886 258.181 160.187 262.23H148.363C148.105 259.904 147.006 258.396 145.068 257.707V267.722C148.643 268.713 151.4 269.596 153.338 270.371C155.277 271.147 157 272.439 158.507 274.248C160.058 276.014 160.834 278.448 160.834 281.55ZM137.056 261.713C137.056 262.79 137.379 263.695 138.025 264.427C138.714 265.159 139.683 265.805 140.932 266.365V257.384C139.726 257.599 138.779 258.073 138.089 258.805C137.4 259.495 137.056 260.464 137.056 261.713ZM145.068 286.525C146.36 286.31 147.372 285.793 148.105 284.974C148.88 284.156 149.268 283.143 149.268 281.937C149.268 280.817 148.901 279.913 148.169 279.224C147.48 278.491 146.446 277.867 145.068 277.35V286.525Z" fill="#FFA92A"/>
<path d="M239.958 355.019V370.098C239.958 375.829 268.934 380.485 304.644 380.485C340.353 380.485 369.33 375.829 369.33 370.098V355.019H239.958Z" fill="#FFA939"/>
<path d="M239.958 355.019V358.207C245.725 363.651 272.48 367.77 304.644 367.77C336.808 367.77 363.563 363.651 369.33 358.207V355.019H239.958Z" fill="white"/>
<path d="M304.644 365.406C340.369 365.406 369.33 360.756 369.33 355.019C369.33 349.283 340.369 344.632 304.644 344.632C268.919 344.632 239.958 349.283 239.958 355.019C239.958 360.756 268.919 365.406 304.644 365.406Z" fill="#FFC239"/>
<path d="M304.646 362.111C330.836 362.111 352.067 358.936 352.067 355.019C352.067 351.103 330.836 347.928 304.646 347.928C278.455 347.928 257.224 351.103 257.224 355.019C257.224 358.936 278.455 362.111 304.646 362.111Z" fill="#FFA939"/>
<path d="M239.958 330.663V345.742C239.958 351.473 268.934 356.129 304.644 356.129C340.353 356.129 369.33 351.473 369.33 345.742V330.663H239.958Z" fill="#FFA939"/>
<path d="M239.958 330.663V333.851C245.725 339.295 272.48 343.414 304.644 343.414C336.808 343.414 363.563 339.295 369.33 333.851V330.663H239.958Z" fill="white"/>
<path d="M304.644 341.05C340.369 341.05 369.33 336.4 369.33 330.663C369.33 324.927 340.369 320.276 304.644 320.276C268.919 320.276 239.958 324.927 239.958 330.663C239.958 336.4 268.919 341.05 304.644 341.05Z" fill="#FFC239"/>
<path d="M304.646 337.755C330.836 337.755 352.067 334.58 352.067 330.663C352.067 326.747 330.836 323.572 304.646 323.572C278.455 323.572 257.224 326.747 257.224 330.663C257.224 334.58 278.455 337.755 304.646 337.755Z" fill="#FFA939"/>
<path d="M239.958 306.272V321.351C239.958 327.082 268.934 331.738 304.644 331.738C340.353 331.738 369.33 327.082 369.33 321.351V306.272H239.958Z" fill="#FFA939"/>
<path d="M239.958 306.272V309.46C245.725 314.904 272.48 319.023 304.644 319.023C336.808 319.023 363.563 314.904 369.33 309.46V306.272H239.958Z" fill="white"/>
<path d="M304.644 316.659C340.369 316.659 369.33 312.009 369.33 306.272C369.33 300.536 340.369 295.885 304.644 295.885C268.919 295.885 239.958 300.536 239.958 306.272C239.958 312.009 268.919 316.659 304.644 316.659Z" fill="#FFC239"/>
<path d="M304.646 313.364C330.836 313.364 352.067 310.189 352.067 306.272C352.067 302.356 330.836 299.181 304.646 299.181C278.455 299.181 257.224 302.356 257.224 306.272C257.224 310.189 278.455 313.364 304.646 313.364Z" fill="#FFA939"/>
<path d="M239.958 281.881V296.96C239.958 302.69 268.934 307.347 304.644 307.347C340.353 307.347 369.33 302.69 369.33 296.96V281.881H239.958Z" fill="#FFA939"/>
<path d="M239.958 281.881V285.068C245.725 290.512 272.48 294.631 304.644 294.631C336.808 294.631 363.563 290.512 369.33 285.068V281.881H239.958Z" fill="white"/>
<path d="M304.644 292.267C340.369 292.267 369.33 287.617 369.33 281.88C369.33 276.144 340.369 271.493 304.644 271.493C268.919 271.493 239.958 276.144 239.958 281.88C239.958 287.617 268.919 292.267 304.644 292.267Z" fill="#FFC239"/>
<path d="M304.646 288.972C330.836 288.972 352.067 285.797 352.067 281.881C352.067 277.964 330.836 274.789 304.646 274.789C278.455 274.789 257.224 277.964 257.224 281.881C257.224 285.797 278.455 288.972 304.646 288.972Z" fill="#FFA939"/>
<path d="M239.958 257.525V272.604C239.958 278.335 268.934 282.991 304.644 282.991C340.353 282.991 369.33 278.335 369.33 272.604V257.525H239.958Z" fill="#FFA939"/>
<path d="M239.958 257.525V260.713C245.725 266.157 272.48 270.276 304.644 270.276C336.808 270.276 363.563 266.157 369.33 260.713V257.525H239.958Z" fill="white"/>
<path d="M304.644 267.912C340.369 267.912 369.33 263.262 369.33 257.525C369.33 251.789 340.369 247.138 304.644 247.138C268.919 247.138 239.958 251.789 239.958 257.525C239.958 263.262 268.919 267.912 304.644 267.912Z" fill="#FFC239"/>
<path d="M304.646 264.617C330.836 264.617 352.067 261.442 352.067 257.525C352.067 253.609 330.836 250.433 304.646 250.433C278.455 250.433 257.224 253.609 257.224 257.525C257.224 261.442 278.455 264.617 304.646 264.617Z" fill="#FFA939"/>
<path d="M239.958 233.134V248.213C239.958 253.943 268.934 258.6 304.644 258.6C340.353 258.6 369.33 253.943 369.33 248.213V233.134H239.958Z" fill="#FFA939"/>
<path d="M239.958 233.134V236.321C245.725 241.765 272.48 245.884 304.644 245.884C336.808 245.884 363.563 241.765 369.33 236.321V233.134H239.958Z" fill="white"/>
<path d="M304.644 243.52C340.369 243.52 369.33 238.87 369.33 233.133C369.33 227.397 340.369 222.746 304.644 222.746C268.919 222.746 239.958 227.397 239.958 233.133C239.958 238.87 268.919 243.52 304.644 243.52Z" fill="#FFC239"/>
<path d="M304.646 240.225C330.836 240.225 352.067 237.05 352.067 233.134C352.067 229.217 330.836 226.042 304.646 226.042C278.455 226.042 257.224 229.217 257.224 233.134C257.224 237.05 278.455 240.225 304.646 240.225Z" fill="#FFA939"/>
<path d="M240.628 207.789V222.868C240.628 228.599 269.604 233.255 305.314 233.255C341.023 233.255 369.999 228.599 369.999 222.868V207.789H240.628Z" fill="#FFA939"/>
<path d="M240.628 207.789V210.977C246.394 216.421 273.15 220.54 305.314 220.54C337.477 220.54 364.233 216.421 369.999 210.977V207.789H240.628Z" fill="white"/>
<path d="M305.314 218.176C341.039 218.176 369.999 213.526 369.999 207.789C369.999 202.052 341.039 197.402 305.314 197.402C269.589 197.402 240.628 202.052 240.628 207.789C240.628 213.526 269.589 218.176 305.314 218.176Z" fill="#FFC239"/>
<path d="M305.315 214.881C331.506 214.881 352.737 211.706 352.737 207.789C352.737 203.873 331.506 200.697 305.315 200.697C279.125 200.697 257.894 203.873 257.894 207.789C257.894 211.706 279.125 214.881 305.315 214.881Z" fill="#FFA939"/>
<path d="M240.628 183.434V198.513C240.628 204.244 269.604 208.9 305.314 208.9C341.023 208.9 369.999 204.244 369.999 198.513V183.434H240.628Z" fill="#FFA939"/>
<path d="M240.628 183.434V186.621C246.394 192.066 273.15 196.185 305.314 196.185C337.477 196.185 364.233 192.066 369.999 186.621V183.434H240.628Z" fill="white"/>
<path d="M305.314 193.821C341.039 193.821 369.999 189.17 369.999 183.434C369.999 177.697 341.039 173.047 305.314 173.047C269.589 173.047 240.628 177.697 240.628 183.434C240.628 189.17 269.589 193.821 305.314 193.821Z" fill="#FFC239"/>
<path d="M305.315 190.526C331.506 190.526 352.737 187.35 352.737 183.434C352.737 179.517 331.506 176.342 305.315 176.342C279.125 176.342 257.894 179.517 257.894 183.434C257.894 187.35 279.125 190.526 305.315 190.526Z" fill="#FFA939"/>
<path d="M240.628 159.042V174.121C240.628 179.852 269.604 184.508 305.314 184.508C341.023 184.508 369.999 179.852 369.999 174.121V159.042H240.628Z" fill="#FFA939"/>
<path d="M240.628 159.042V162.23C246.394 167.674 273.15 171.793 305.314 171.793C337.477 171.793 364.233 167.674 369.999 162.23V159.042H240.628Z" fill="white"/>
<path d="M305.314 169.429C341.039 169.429 369.999 164.778 369.999 159.042C369.999 153.305 341.039 148.655 305.314 148.655C269.589 148.655 240.628 153.305 240.628 159.042C240.628 164.778 269.589 169.429 305.314 169.429Z" fill="#FFC239"/>
<path d="M305.315 166.134C331.506 166.134 352.737 162.959 352.737 159.042C352.737 155.125 331.506 151.95 305.315 151.95C279.125 151.95 257.894 155.125 257.894 159.042C257.894 162.959 279.125 166.134 305.315 166.134Z" fill="#FFA939"/>
</svg>
