<svg width="47" height="47" viewBox="0 0 47 47" fill="none" xmlns="http://www.w3.org/2000/svg">
<g clip-path="url(#clip0_2474_351)">
<path d="M8.30248 19.9126C7.69265 19.3929 6.97473 19.3145 6.20547 19.3415C5.23082 19.3758 5.21731 19.3496 5.22452 20.3099C5.22722 20.6621 5.14435 20.817 4.75341 20.8125C3.16894 20.7927 1.58447 20.8017 0 20.7999V6.66306C1.58537 6.66576 3.17074 6.67117 4.75702 6.67027C5.01734 6.67027 5.22182 6.67567 5.22542 7.03598C5.22902 7.4008 5.04707 7.87371 5.32721 8.10701C5.60825 8.34121 6.07576 8.16376 6.46129 8.18808C6.55047 8.19349 6.64325 8.17637 6.73062 8.19078C7.56745 8.3295 8.24483 8.04306 8.81412 7.43593C8.96636 7.27379 9.17444 7.16389 9.32487 6.99995C9.60231 6.69639 10.0518 6.56127 10.1896 6.12169C10.3761 6.21267 10.4607 6.04783 10.5679 5.96045C11.1012 5.52358 11.6363 5.0885 12.156 4.63541C12.3677 4.45075 12.5524 4.394 12.8397 4.47957C14.5034 4.9741 16.1726 5.44881 17.8453 5.91451C18.1498 5.99919 18.3957 6.12349 18.566 6.39643C18.6695 6.56217 18.7912 6.69459 19.029 6.68918C19.8523 6.66757 20.6765 6.66666 21.5007 6.65856C23.0149 6.8288 23.8517 7.74039 23.7752 9.1303C23.7544 9.50142 23.6202 9.83561 23.4194 10.1356C23.2824 10.34 23.2842 10.486 23.4212 10.6958C23.9301 11.4759 23.913 12.283 23.4401 13.0703C23.2978 13.3072 23.2914 13.4666 23.4446 13.7081C23.9319 14.4764 23.9049 15.2745 23.4392 16.0438C23.295 16.2816 23.2842 16.4446 23.4473 16.6806C23.9283 17.3769 23.8166 18.13 23.5941 18.8821C23.1131 19.5271 22.5393 20.0982 21.6872 20.0558C20.1621 19.9802 18.5813 20.4414 17.1058 19.5919C17.1058 19.8586 17.1238 20.0847 17.1013 20.3072C17.0644 20.6666 17.1382 20.8161 17.5688 20.8296C18.865 20.8711 19.8622 21.8052 20.0568 23.0735C20.1621 23.7607 20.1423 23.7851 19.4649 23.7851C19.3145 23.7851 19.1623 23.768 19.0154 23.7887C18.6822 23.8355 18.5822 23.7049 18.5678 23.3716C18.5407 22.7717 18.1489 22.3483 17.5931 22.3294C16.7689 22.3006 15.9429 22.2997 15.1187 22.3303C14.553 22.351 14.135 22.8546 14.1368 23.4221C14.1395 24.0688 14.6034 24.5129 15.3493 24.5354C16.114 24.5579 16.8806 24.5192 17.6436 24.5561C18.9488 24.6201 19.9847 25.6623 20.073 26.9549C20.1612 28.2448 19.2722 29.4086 18.0066 29.6915C17.712 29.7572 17.2968 29.5663 17.1454 29.8644C17.0175 30.1157 17.0833 30.4833 17.113 30.7949C17.1481 31.1625 17.0058 31.2444 16.6599 31.2399C15.6177 31.2255 15.5952 31.239 15.6213 30.2202C15.6321 29.8095 15.4889 29.7302 15.1124 29.7158C13.7171 29.6636 12.6577 28.5331 12.6334 27.1306C12.6289 26.8774 12.6767 26.7306 12.9748 26.7531C13.2586 26.7739 13.545 26.7694 13.8297 26.754C14.0675 26.7414 14.1269 26.8378 14.1395 27.0666C14.1864 27.8701 14.598 28.2502 15.4069 28.2592C16.0366 28.2664 16.6671 28.2655 17.2968 28.2592C18.0867 28.2511 18.584 27.8052 18.5759 27.1216C18.5678 26.4532 18.0822 26.0262 17.3112 26.0208C16.5915 26.0154 15.8708 26.0343 15.1511 26.0145C13.8549 25.9794 12.8154 24.9948 12.6596 23.6761C12.5145 22.4474 13.3459 21.2422 14.5503 20.9035C14.8926 20.8071 15.3808 20.9683 15.5538 20.6972C15.7186 20.4378 15.6132 20 15.606 19.6406C15.6006 19.4028 15.697 19.3226 15.9258 19.3325C16.2185 19.3451 16.5131 19.3352 16.8076 19.3352C16.8076 19.2523 16.8184 19.2172 16.8058 19.1974C16.2257 18.3002 16.187 17.4031 16.8166 16.514C16.9175 16.3717 16.8707 16.287 16.7878 16.1627C16.214 15.2961 16.2113 14.4251 16.7959 13.5585C16.8419 13.4901 16.9473 13.4126 16.8734 13.3261C16.432 12.8091 16.4239 12.0272 15.7925 11.6146C15.597 11.4867 15.5033 11.4381 15.3105 11.5966C14.5467 12.2263 13.7693 12.8388 12.9955 13.4567C12.5932 13.7786 12.2242 13.7645 11.8885 13.4144C11.8038 13.291 11.7281 13.1613 11.6327 13.0469C11.4849 12.8676 11.5183 12.7271 11.6912 12.5902C12.9343 11.6011 14.1765 10.6112 15.415 9.61582C15.6033 9.46448 15.7402 9.46629 15.9105 9.64644C16.2924 10.0482 16.6887 10.4373 17.086 10.8256C17.6129 11.3399 18.3011 11.4012 18.7821 10.9841C19.3388 10.5013 19.3938 9.85002 18.9146 9.22668C18.4939 8.67991 18.0561 8.14755 17.6337 7.60347C17.4778 7.4035 17.2796 7.29361 17.0409 7.22605C15.7862 6.87204 14.5296 6.52254 13.2811 6.14691C12.9379 6.04423 12.6947 6.11269 12.4281 6.33878C11.2048 7.37468 9.96352 8.38895 8.73576 9.42125C8.5502 9.57708 8.36464 9.64824 8.12593 9.64554C7.33144 9.63653 6.53515 9.66266 5.74157 9.63383C5.32541 9.61852 5.2038 9.75724 5.2074 10.1698C5.22542 12.3596 5.21551 14.5494 5.21551 16.7392C5.21551 17.8327 5.21731 17.8697 6.29915 17.821C7.1657 17.7814 7.96469 17.9084 8.69612 18.3876C8.9015 18.5227 9.1348 18.5786 9.38162 18.5696C9.0213 19.0163 8.66099 19.464 8.30068 19.9108L8.30248 19.9126ZM3.6995 13.7765C3.6995 12.0803 3.68869 10.3851 3.70761 8.68891C3.71211 8.28807 3.5815 8.15565 3.19056 8.18178C2.75729 8.2106 2.32041 8.19709 1.88533 8.18628C1.6133 8.17907 1.51421 8.29527 1.51511 8.5619C1.51871 12.0281 1.51961 15.4952 1.51331 18.9614C1.51331 19.2578 1.63131 19.3604 1.91596 19.3523C2.35103 19.3397 2.78791 19.3298 3.22119 19.3559C3.59951 19.3785 3.71031 19.2325 3.70671 18.8632C3.69139 17.1679 3.6995 15.4718 3.6995 13.7756V13.7765ZM20.0784 18.5597C20.572 18.5597 21.0647 18.5705 21.5583 18.556C22.0024 18.5434 22.3141 18.2291 22.3114 17.8309C22.3087 17.4823 21.9736 17.1238 21.5773 17.1175C20.5765 17.1004 19.5748 17.0995 18.5732 17.1175C18.1759 17.1247 17.8471 17.4832 17.8453 17.8372C17.8435 18.2489 18.1372 18.5425 18.5993 18.556C19.092 18.5705 19.5856 18.5597 20.0793 18.5597H20.0784ZM20.0784 15.5862C20.5738 15.5862 21.0683 15.597 21.5638 15.5826C21.9934 15.57 22.2898 15.2826 22.3105 14.8926C22.3294 14.5458 22.0006 14.1566 21.6061 14.1485C20.5864 14.1269 19.5658 14.1269 18.547 14.1485C18.1516 14.1575 17.8255 14.5467 17.8453 14.8953C17.8679 15.2844 18.1651 15.5718 18.5939 15.5835C19.0884 15.597 19.5838 15.5862 20.0793 15.5862H20.0784ZM19.1695 12.5163L19.2208 12.6136C20.0108 12.6136 20.8017 12.6298 21.5908 12.6082C22.1213 12.5938 22.4465 12.0858 22.2474 11.6399C22.052 11.2021 20.8107 10.9364 20.4567 11.257C20.4351 11.2769 20.4171 11.303 20.4035 11.3291C20.127 11.857 19.7136 12.2506 19.1695 12.5163ZM20.9945 8.19439V8.18988C20.7999 8.18988 20.6053 8.19529 20.4117 8.18898C20.109 8.17907 20.0667 8.28897 20.2405 8.52407C20.4288 8.77989 20.5594 9.06454 20.6242 9.37621C20.6657 9.57258 20.7891 9.64554 20.9782 9.64284C21.1872 9.64014 21.398 9.65275 21.6061 9.63833C22.0132 9.60951 22.3168 9.28793 22.3114 8.9096C22.306 8.57902 21.9763 8.22681 21.6232 8.19799C21.4151 8.18087 21.2052 8.19529 20.9954 8.19529L20.9945 8.19439Z" fill="#333E5E"/>
<path d="M40.8797 46.1028C40.8815 45.5326 40.8752 44.9624 40.8878 44.3931C40.8932 44.1292 40.8041 44.0463 40.5401 44.1084C40.1321 44.2048 39.7168 44.2679 39.307 44.3571C38.5881 44.5138 37.8666 44.5994 37.1253 44.5922C34.9058 44.5714 32.6844 44.5309 30.4658 44.5967C28.5904 44.6525 26.7699 44.3967 24.9521 43.9922C23.5821 43.6869 22.2039 43.4176 20.8266 43.1437C20.6473 43.1077 20.4807 43.0617 20.3185 42.9807C19.1655 42.4042 18.0089 41.8349 16.8577 41.2539C15.9272 40.7837 15.53 39.9883 15.6714 38.9164C15.7795 38.0966 16.5028 37.3832 17.427 37.2202C18.1783 37.0878 18.7899 37.4688 19.4024 37.8156C19.6853 37.9759 19.9591 38.1498 20.2807 38.2363C20.3717 38.039 20.2591 37.894 20.2113 37.7462C19.8438 36.6023 20.3275 35.4529 21.4022 35.0989C22.4336 34.7593 23.5379 35.0862 24.0748 36.3338C24.3468 36.9662 24.6008 37.6075 24.844 38.2525C24.9467 38.5254 25.0873 38.6587 25.4016 38.6443C25.9817 38.6182 26.5645 38.6371 27.1708 38.5596C26.7213 38.311 26.2799 38.0444 25.8196 37.8183C24.6594 37.249 24.3333 36.0014 24.6864 34.9601C25.0665 33.8414 26.2204 33.2288 27.4077 33.5928C29.0813 34.1062 30.7144 34.7512 32.3854 35.2754C33.5366 35.6366 34.5508 36.2185 35.5129 36.9166C35.7804 37.1103 36.0551 37.195 36.3875 37.1914C37.7225 37.177 39.0574 37.1752 40.3924 37.1914C40.7536 37.1959 40.9158 37.0986 40.8878 36.7131C40.8608 36.3248 40.8815 35.9339 40.8824 35.5438C40.883 35.1433 41.0773 34.9424 41.4652 34.9412C43.0101 34.9394 44.5549 34.9385 46.0997 34.9376C46.0997 38.5542 46.0961 42.1709 46.1069 45.7884C46.1069 46.0568 46.0529 46.1136 45.7845 46.1118C44.1486 46.0965 42.5128 46.1037 40.877 46.1037L40.8797 46.1028ZM30.4829 38.7389C29.5587 39.2001 28.6733 39.6388 27.7905 40.0829C27.6347 40.1612 27.4725 40.1585 27.3077 40.1585C25.1917 40.1585 23.0758 40.1567 20.9608 40.1612C20.7122 40.1612 20.5005 40.0991 20.2825 39.9739C19.5817 39.5703 18.8719 39.1821 18.1558 38.8047C17.8954 38.6677 17.5964 38.6425 17.3442 38.8209C17.1325 38.9704 17.0748 39.2199 17.1307 39.4694C17.1955 39.7577 17.427 39.9099 17.672 40.0333C18.3404 40.3711 18.9944 40.7467 19.6871 41.026C20.3086 41.2764 20.8617 41.6745 21.5472 41.7952C22.856 42.0249 24.1504 42.3384 25.4602 42.5609C26.6654 42.7654 27.8391 43.1509 29.0858 43.1365C31.2612 43.1113 33.4384 43.0897 35.6129 43.1428C37.2469 43.1824 38.8386 42.987 40.4239 42.624C40.7716 42.5447 40.8995 42.4204 40.8923 42.0655C40.8734 41.0908 40.8689 40.1144 40.8941 39.1398C40.9049 38.738 40.7689 38.6254 40.378 38.6308C38.8926 38.6497 37.4072 38.6317 35.9218 38.6434C35.5912 38.6461 35.3147 38.5642 35.0409 38.3777C34.3842 37.9318 33.7582 37.3859 33.033 37.1049C31.0783 36.3455 29.0786 35.6988 27.0942 35.0169C26.6411 34.861 26.27 35.0367 26.0952 35.4439C25.9286 35.8321 26.097 36.3095 26.4889 36.5176C27.6527 37.1346 28.8201 37.7462 29.9866 38.3579C30.1577 38.4471 30.337 38.5209 30.4838 38.7389H30.4829ZM44.5855 40.5657C44.5855 39.3379 44.5801 38.1102 44.5891 36.8824C44.5918 36.5815 44.4972 36.4419 44.1775 36.4536C43.7136 36.4707 43.2488 36.4644 42.7849 36.4554C42.5281 36.45 42.3993 36.5356 42.4002 36.8148C42.4056 39.2857 42.4056 41.7565 42.4002 44.2274C42.4002 44.5057 42.5281 44.5922 42.7849 44.5877C43.2344 44.5787 43.6838 44.5678 44.1324 44.5913C44.4963 44.6102 44.5945 44.4552 44.5909 44.1148C44.5765 42.932 44.5855 41.7493 44.5855 40.5657ZM22.6885 38.7101C22.8776 38.7101 23.0281 38.7191 23.1767 38.7074C23.2956 38.6984 23.3875 38.6272 23.3379 38.4975C23.0983 37.8724 22.9281 37.213 22.5462 36.6536C22.3687 36.3942 22.057 36.3996 21.8138 36.5329C21.5778 36.6617 21.4941 36.922 21.5733 37.195C21.6607 37.4958 21.7967 37.785 21.8616 38.0894C21.9652 38.5768 22.1886 38.8533 22.6885 38.7101Z" fill="#333E5E"/>
<path d="M10.1889 6.1217C9.53945 4.70657 9.62683 3.20227 9.68268 1.70968C9.7106 0.956628 10.1628 0.444985 10.8321 0.120704C10.8528 0.110796 10.8717 0.06936 10.869 0.0459397C10.8672 0.0279242 10.8285 0.0153132 10.8059 0H12.1562C12.0986 0.156736 12.2454 0.142323 12.3148 0.177454C13.0444 0.547674 13.3741 1.1566 13.3912 1.95559C13.3957 2.16547 13.3903 2.37445 13.3966 2.58434C13.4038 2.81043 13.5173 2.95996 13.7497 2.96536C13.9821 2.97077 14.1064 2.82214 14.1253 2.60235C14.1415 2.40868 14.137 2.21321 14.1307 2.01865C14.1037 1.18993 14.4505 0.579201 15.1819 0.185561C15.2522 0.147728 15.399 0.151331 15.3071 0C15.7584 0 16.2079 0 16.6583 0C16.6421 0.0198171 16.6097 0.0441382 16.6133 0.0585506C16.6196 0.0837725 16.6448 0.112597 16.6691 0.123407C17.6032 0.549475 17.9122 1.31334 17.841 2.28528C17.832 2.40418 17.8302 2.52759 17.8527 2.64289C17.8897 2.83836 18.0086 2.97077 18.2212 2.96627C18.431 2.96176 18.5563 2.83745 18.5734 2.63208C18.5905 2.424 18.586 2.21321 18.586 2.00423C18.586 1.16561 18.9229 0.534162 19.6957 0.160339C19.7489 0.134216 19.8984 0.140522 19.8092 0H21.1595C21.0235 0.188263 21.2307 0.164843 21.2973 0.202675C21.9864 0.592713 22.3152 1.19083 22.3116 1.97C22.308 2.85007 22.3656 3.73193 22.2332 4.60749C22.1224 5.33802 21.8423 6.01 21.4991 6.65856C20.6749 6.66757 19.8507 6.66847 19.0274 6.68919C18.7896 6.69549 18.6679 6.56308 18.5644 6.39643C18.3941 6.1244 18.1482 5.99919 17.8437 5.91452C16.1719 5.44881 14.5018 4.9741 12.8381 4.47958C12.5499 4.394 12.3661 4.45075 12.1544 4.63541C11.6347 5.0885 11.0996 5.52358 10.5663 5.96046C10.4591 6.04783 10.3754 6.21267 10.188 6.1217H10.1889Z" fill="#3369E7"/>
<path d="M11.8895 13.4171C12.2245 13.7678 12.5936 13.7819 12.9965 13.4594C13.7694 12.8406 14.5477 12.229 15.3115 11.5993C15.5034 11.4408 15.598 11.4894 15.7934 11.6173C16.4249 12.029 16.433 12.8118 16.8744 13.3288C16.9482 13.4153 16.8437 13.4928 16.7969 13.5612C16.2123 14.4287 16.2159 15.2988 16.7888 16.1654C16.8708 16.2897 16.9176 16.3744 16.8176 16.5167C16.1889 17.4057 16.2276 18.3029 16.8068 19.2001C16.8194 19.2199 16.8086 19.255 16.8086 19.3379C16.5141 19.3379 16.2195 19.3478 15.9268 19.3352C15.698 19.3253 15.6016 19.4055 15.607 19.6433C15.6151 20.0027 15.7196 20.4405 15.5547 20.6999C15.3818 20.9719 14.8936 20.8107 14.5513 20.9062C13.3469 21.244 12.5155 22.4501 12.6605 23.6788C12.8164 24.9975 13.855 25.983 15.1521 26.0172C15.8718 26.0361 16.5924 26.0181 17.3122 26.0235C18.0823 26.0289 18.5687 26.4559 18.5768 27.1243C18.5849 27.8079 18.0877 28.2538 17.2977 28.2619C16.6681 28.2682 16.0375 28.2691 15.4079 28.2619C14.5981 28.252 14.1873 27.8728 14.1405 27.0693C14.127 26.8405 14.0675 26.7441 13.8306 26.7567C13.546 26.772 13.2595 26.7766 12.9758 26.7558C12.6776 26.7333 12.6299 26.8801 12.6344 27.1333C12.6587 28.5358 13.718 29.6663 15.1133 29.7185C15.4899 29.7329 15.6331 29.8122 15.6223 30.2229C15.5962 31.2417 15.6187 31.2282 16.6609 31.2426C17.0068 31.2471 17.1491 31.1651 17.114 30.7976C17.0843 30.486 17.0185 30.1193 17.1464 29.8671C17.2986 29.569 17.713 29.7599 18.0076 29.6942C19.2731 29.4113 20.1613 28.2475 20.0739 26.9576C19.9857 25.665 18.9498 24.6228 17.6445 24.5588C16.8816 24.5219 16.1141 24.5606 15.3503 24.5381C14.6053 24.5156 14.1405 24.0715 14.1378 23.4247C14.136 22.8564 14.554 22.3537 15.1197 22.333C15.9439 22.3024 16.7699 22.3033 17.5941 22.3321C18.1499 22.351 18.5417 22.7744 18.5687 23.3743C18.584 23.7076 18.684 23.8382 19.0164 23.7914C19.1632 23.7706 19.3164 23.7878 19.4659 23.7878C20.1433 23.7878 20.1631 23.7634 20.0577 23.0761C19.8632 21.8079 18.866 20.8728 17.5698 20.8323C17.1401 20.8188 17.0662 20.6693 17.1023 20.3099C17.1248 20.0874 17.1068 19.8613 17.1068 19.5946C18.5822 20.4441 20.1631 19.982 21.6881 20.0585C22.5403 20.1009 23.1141 19.5298 23.5951 18.8848C26.0344 21.7754 26.7055 25.0534 25.4219 28.5907C24.1563 32.0785 21.5719 34.1981 17.9067 34.8169C12.0597 35.8051 6.6181 31.0859 6.69016 25.1705C6.71358 23.2617 7.28197 21.5169 8.30346 19.9126C8.66377 19.4658 9.02408 19.0181 9.38439 18.5714C9.42943 18.5335 9.47897 18.4993 9.51951 18.457C10.8626 17.0373 11.6634 15.3628 11.8904 13.418L11.8895 13.4171Z" fill="#3369E7"/>
</g>
<defs>
<clipPath id="clip0_2474_351">
<rect width="46.11" height="46.1109" fill="white"/>
</clipPath>
</defs>
</svg>
