<svg width="26" height="20" viewBox="0 0 26 20" fill="none" xmlns="http://www.w3.org/2000/svg">
<g clip-path="url(#clip0_2474_240)">
<path d="M25.4082 2.40633C24.4568 2.80788 23.4476 3.07146 22.4142 3.1883C23.4906 2.57369 24.3171 1.60044 24.7062 0.440822C23.683 1.01929 22.5635 1.42686 21.3961 1.64592C20.4452 0.680802 19.0905 0.0776367 17.5911 0.0776367C14.7123 0.0776367 12.3782 2.30119 12.3782 5.04366C12.3782 5.43294 12.4243 5.81191 12.5132 6.17548C8.18085 5.96831 4.33985 3.99126 1.76875 0.986687C1.32014 1.72015 1.06308 2.57332 1.06308 3.48331C1.06308 5.20629 1.98343 6.72626 3.38207 7.61687C2.55427 7.59217 1.74468 7.37917 1.02089 6.99565C1.0206 7.01645 1.0206 7.03725 1.0206 7.05815C1.0206 9.46428 2.81744 11.4715 5.20204 11.9277C4.43442 12.1266 3.62924 12.1557 2.848 12.0128C3.5113 13.9858 5.43647 15.4215 7.71745 15.4617C5.93342 16.7936 3.68568 17.5876 1.24351 17.5876C0.822691 17.5876 0.407822 17.564 0 17.5182C2.30689 18.9272 5.04691 19.7494 7.99069 19.7494C17.579 19.7494 22.8222 12.1821 22.8222 5.61959C22.8222 5.40419 22.8172 5.19003 22.8071 4.97709C23.8276 4.27425 24.7084 3.40371 25.4082 2.40633Z" fill="#012C58"/>
</g>
<defs>
<clipPath id="clip0_2474_240">
<rect width="25.4082" height="19.762" fill="white"/>
</clipPath>
</defs>
</svg>
